<svg width="24" height="24" viewBox="0 0 251 212" fill="none" xmlns="http://www.w3.org/2000/svg" class="pointer-events-none size-4 select-none"><path d="M68.2777 102.518L64.4084 90.3914H28.7083L24.8375 102.518H0.0449219L35.8848 2.66504H57.2456L93.5154 102.518H68.2777ZM46.6373 31.1906L34.3079 72.2753H58.6797L46.6373 31.1906Z" fill="currentColor"></path><path d="M96.2783 2.66504H119.789V102.518H96.2783V2.66504Z" fill="currentColor"></path><path d="M126.128 82.1184C127.184 77.1884 129.048 72.4652 131.647 68.1383C133.907 64.4821 136.738 61.2076 140.034 58.4378C143.401 55.6586 146.971 53.1322 150.714 50.8794C153.675 49.1662 156.423 47.5255 158.957 45.9573C161.294 44.5298 163.522 42.9327 165.623 41.1789C167.437 39.6784 168.967 37.8665 170.139 35.829C171.258 33.798 171.826 31.5118 171.787 29.1957C171.787 25.2019 170.689 22.3251 168.491 20.5655C166.16 18.7632 163.269 17.8294 160.319 17.9261C156.962 17.8251 153.697 19.0275 151.215 21.279C148.778 23.5143 147.56 27.2472 147.56 32.4776H124.478C124.437 28.1326 125.241 23.8207 126.845 19.7794C128.383 15.9347 130.757 12.476 133.796 9.65113C137.033 6.69103 140.836 4.41081 144.979 2.94679C149.859 1.25067 155.002 0.429195 160.17 0.520531C164.605 0.500154 169.021 1.10063 173.288 2.30432C177.257 3.40046 180.979 5.24036 184.255 7.72524C187.474 10.23 190.052 13.4558 191.781 17.14C193.734 21.413 194.69 26.0705 194.576 30.7634C194.628 34.7331 193.692 38.6539 191.852 42.1766C190.09 45.5273 187.844 48.6029 185.186 51.3057C182.591 53.9409 179.733 56.3072 176.658 58.3683C173.596 60.4141 170.824 62.1495 168.342 63.5746C164.899 65.8572 162.055 67.831 159.812 69.4958C157.887 70.8807 156.088 72.4316 154.437 74.1307C153.201 75.392 152.248 76.8995 151.64 78.5539C151.087 80.2576 150.82 82.0408 150.852 83.8312H193.861V102.519H124.192C124.07 95.668 124.719 88.8252 126.128 82.1184V82.1184Z" fill="currentColor"></path><path d="M198.299 20.2005C202.316 20.2819 206.33 19.923 210.268 19.1302C212.899 18.6332 215.378 17.5345 217.509 15.9209C219.219 14.509 220.466 12.6215 221.092 10.5C221.809 7.94733 222.147 5.30416 222.095 2.6543H242.603V102.518H218.95V36.4678H198.299V20.2005Z" fill="currentColor"></path><path d="M3 110H24.9305V209.853H3V110Z" fill="#E91E63"></path><path d="M105.914 141.04V209.801H83.9801V200.097C83.0804 201.767 81.9188 203.284 80.5392 204.59C79.0642 206 77.4002 207.2 75.5944 208.156C73.6578 209.181 71.6146 209.992 69.5011 210.575C67.3563 211.185 65.1371 211.496 62.9065 211.502C58.196 211.555 53.5283 210.607 49.2159 208.72C45.176 206.95 41.5419 204.378 38.5362 201.162C35.4987 197.853 33.1586 193.972 31.6545 189.748C28.4055 180.464 28.4055 170.359 31.6545 161.075C33.1586 156.851 35.4987 152.97 38.5362 149.661C41.5419 146.445 45.176 143.873 49.2159 142.103C53.5297 140.218 58.1984 139.272 62.9095 139.328C65.1401 139.333 67.3593 139.644 69.5041 140.254C71.6276 140.843 73.6731 141.681 75.5974 142.751C77.4079 143.757 79.0716 145.005 80.5423 146.46C81.8861 147.771 83.0437 149.259 83.9831 150.881V141.04H105.914ZM67.4943 192.967C69.8193 193.002 72.1222 192.515 74.2317 191.541C76.186 190.631 77.9411 189.347 79.3968 187.762C80.8648 186.137 82.0083 184.248 82.7663 182.197C83.5819 180.031 83.9937 177.735 83.9816 175.422C84.0149 170.911 82.3822 166.545 79.3938 163.153C77.9536 161.533 76.196 160.222 74.2287 159.301C72.1081 158.362 69.8127 157.876 67.4913 157.876C65.1699 157.876 62.8744 158.362 60.7538 159.301C58.7868 160.223 57.0293 161.533 55.5887 163.153C52.6016 166.546 50.9696 170.912 51.0024 175.422C50.9888 177.735 51.4007 180.032 52.2177 182.197C52.9752 184.248 54.1182 186.137 55.5857 187.762C57.0418 189.346 58.7968 190.631 60.7508 191.541C62.862 192.516 65.1672 193.003 67.4943 192.967Z" fill="#E91E63"></path><path d="M132.569 209.853H110.634V110H132.569V150.935C133.508 149.312 134.666 147.825 136.01 146.513C137.495 145.047 139.183 143.798 141.023 142.805C142.955 141.751 144.999 140.913 147.116 140.308C149.283 139.688 151.528 139.376 153.782 139.381C158.493 139.328 163.16 140.276 167.473 142.163C171.513 143.933 175.147 146.505 178.153 149.721C181.189 153.03 183.529 156.911 185.034 161.134C188.283 170.419 188.283 180.524 185.034 189.808C183.529 194.032 181.189 197.912 178.153 201.221C175.147 204.438 171.513 207.01 167.473 208.78C163.16 210.666 158.493 211.615 153.782 211.561C151.528 211.566 149.283 211.254 147.116 210.635C145.008 210.035 142.967 209.225 141.023 208.216C139.189 207.273 137.5 206.072 136.01 204.65C134.63 203.344 133.469 201.827 132.569 200.157V209.853ZM149.199 193.019C151.477 193.044 153.731 192.557 155.794 191.593C157.748 190.683 159.503 189.399 160.959 187.814C162.427 186.189 163.57 184.301 164.328 182.25C165.144 180.083 165.556 177.787 165.544 175.474C165.577 170.963 163.944 166.597 160.956 163.205C159.516 161.585 157.758 160.274 155.791 159.354C153.729 158.389 151.476 157.9 149.199 157.921C146.852 157.892 144.527 158.378 142.39 159.346C140.395 160.253 138.613 161.565 137.158 163.198C134.17 166.59 132.537 170.956 132.57 175.467C132.558 177.78 132.969 180.076 133.786 182.242C134.543 184.294 135.686 186.182 137.155 187.807C138.626 189.404 140.405 190.689 142.387 191.586C144.524 192.558 146.85 193.047 149.199 193.019Z" fill="#E91E63"></path><path d="M228.683 169.338C231.739 170.194 234.606 171.121 237.284 172.12C239.787 173.027 242.151 174.275 244.309 175.83C246.297 177.285 247.937 179.16 249.111 181.322C250.391 183.888 251.007 186.732 250.903 189.595C251.022 193.196 250.18 196.765 248.465 199.938C246.836 202.75 244.518 205.105 241.728 206.786C238.658 208.623 235.285 209.903 231.765 210.565C227.775 211.345 223.717 211.727 219.651 211.705C209.806 211.705 202.041 209.565 196.355 205.286C190.667 201.007 188.974 194.872 188.974 186.883H209.33C209.33 190.499 210.358 193.091 212.413 194.658C214.725 196.307 217.526 197.136 220.368 197.011C222.639 197.108 224.893 196.591 226.892 195.515C227.724 195.003 228.399 194.273 228.842 193.405C229.284 192.536 229.477 191.563 229.4 190.593C229.457 189.427 229.074 188.282 228.326 187.383C227.385 186.417 226.265 185.642 225.028 185.101C223.173 184.247 221.256 183.531 219.294 182.96C216.951 182.247 214.155 181.367 210.907 180.322C208.041 179.466 205.317 178.539 202.736 177.541C200.316 176.629 198.027 175.405 195.927 173.902C193.971 172.481 192.375 170.625 191.268 168.481C190.034 165.901 189.444 163.062 189.546 160.206C189.546 153.074 192.294 147.796 197.789 144.373C203.285 140.949 210.715 139.236 220.081 139.233C224.52 139.159 228.943 139.761 233.199 141.017C236.609 142.011 239.779 143.685 242.518 145.937C244.902 147.96 246.789 150.497 248.037 153.357C249.285 156.239 249.919 159.347 249.901 162.486H228.253C228.405 160.072 227.609 157.693 226.032 155.853C225.123 155.011 224.049 154.367 222.876 153.961C221.703 153.556 220.459 153.399 219.221 153.499C217.207 153.45 215.219 153.969 213.488 154.997C212.696 155.476 212.05 156.16 211.62 156.977C211.191 157.794 210.993 158.713 211.05 159.633C211.01 160.766 211.422 161.869 212.197 162.701C213.166 163.647 214.31 164.398 215.566 164.912C217.362 165.693 219.205 166.36 221.085 166.909C223.283 167.579 225.816 168.389 228.683 169.338Z" fill="#E91E63"></path></svg>