<svg xmlns="http://www.w3.org/2000/svg" viewBox="0 0 24 24" width="24" height="24" class="pointer-events-none size-4 select-none text-interactive-active" fill="none"><path d="M4 3.5C4 3.5 2 5.5 2 9C2 12.5 5 16 8 17.5" stroke="currentColor" stroke-width="2" stroke-linecap="round" stroke-linejoin="round"></path><path d="M4 3.5C4 3.5 7 2 10.5 3C14 4 16.5 7.5 16.5 7.5" stroke="currentColor" stroke-width="2" stroke-linecap="round" stroke-linejoin="round"></path><ellipse cx="12" cy="12" rx="5.5" ry="3.5" transform="rotate(-45 12 12)" stroke="currentColor" stroke-width="2"></ellipse><path d="M20 20.5C20 20.5 22 18.5 22 15C22 11.5 19 8 16 6.5" stroke="currentColor" stroke-width="2" stroke-linecap="round" stroke-linejoin="round"></path><path d="M20 20.5C20 20.5 17 22 13.5 21C10 20 7.5 16.5 7.5 16.5" stroke="currentColor" stroke-width="2" stroke-linecap="round" stroke-linejoin="round"></path></svg>