<svg xmlns="http://www.w3.org/2000/svg" width="512" height="512" fill="none" viewBox="0 0 512 512"><path fill="#fdfdfd" d="m295.296 434.704 1.459 3.008.049-.021c-1.377 2.761-8.439 16.61-16.917 27.347-4.042 5.12-8.401 9.525-12.618 11.686l-.886.634s-.06.038-.185.099c0 0-11.176 4.955-21.407 0-.125-.061-.186-.099-.186-.099l-.884-.634c-4.217-2.161-8.576-6.572-12.618-11.686-8.473-10.737-15.542-24.586-16.917-27.347l.049.021 1.458-3.008.223-.12a185 185 0 0 0 4.938 8.728c4.103 6.835 7.74 11.922 11.188 17.507.017.033.044.065.06.098h.006c5.293 8.526 11.755 13.029 11.755 13.029s3.239 3.139 8.745 3.658h.027c.891.087 1.847.098 2.857.016 1.005.082 1.961.066 2.857-.016h.027c5.506-.519 8.745-3.658 8.745-3.658s6.462-4.503 11.755-13.029h.006c.016-.033.043-.065.06-.098 3.446-5.585 7.085-10.672 11.187-17.507a187 187 0 0 0 4.939-8.728z"/><path fill="#dc01ff" d="M482.231 279.014a10 10 0 0 0 4.179 1.954 228 228 0 0 1-2.371 20.475l-1.131-.174c-1.802 8.259-5.293 17.691-9.357 26.928a225.3 225.3 0 0 0 8.68-49.183"/><path fill="#dc01ff" d="m482.91 301.269 1.13.175a228.8 228.8 0 0 1-15.241 52.942c-11.657 27.55-28.349 52.284-49.609 73.529-10.93 10.923-22.784 20.639-35.467 29.083q-.008.006-.017.005s-.005 0-.005.006c-4.818 2.101-8.959 3.63-12.203 4.093.038-.038.486-.441 5.359-4.901 46.08-29.204 80.969-74.521 96.678-127.961.006-.016.006-.021.011-.027q.006-.016.005-.016c4.065-9.237 7.561-18.669 9.359-26.928"/><path fill="#ff8d02" d="M473.541 328.24c-15.71 53.44-50.598 98.757-96.679 127.96 3.376-3.083 8.887-8.127 17.866-16.348 6.135-4.563 12.172-10.017 17.126-15.677 17.676-16.179 31.703-36.6 41.885-54.445 12.509-21.905 19.228-39.924 19.78-41.435.005-.022.016-.038.022-.055"/><path fill="#eaeaec" d="M473.513 328.3c-.551 1.512-7.27 19.531-19.779 41.436a12.8 12.8 0 0 0 1.726-6.19v-.006c4.813-8.363 12.051-21.583 18.053-35.24"/><path fill="#eaeaec" d="M482.231 279.014a225.3 225.3 0 0 1-8.68 49.182q.001 0-.005.016c-.006.005-.006.016-.011.027-.006.017-.017.034-.022.056-6.009 13.657-13.246 26.877-18.053 35.24a13 13 0 0 0-.437-3.608 12.82 12.82 0 0 0-5.605-7.593 225 225 0 0 0 1.945-4.449c11.078-26.174 16.693-53.991 16.693-82.675 0-28.686-5.621-56.497-16.693-82.677a213 213 0 0 0-5.796-12.538 12.5 12.5 0 0 0 2.753-1.19 12.84 12.84 0 0 0 6.025-7.844c.546-2.031.591-4.122.143-6.119 17.714 32.02 27.912 68.735 28.202 107.764"/><path fill="#fdfdfd" d="M449.418 352.339a12.77 12.77 0 0 1 5.604 7.594c.323 1.195.47 2.407.437 3.608v.006c-3.178 5.523-5.293 8.925-5.293 8.925l-1.421 2.128s-.005 0-.005.006a12.9 12.9 0 0 1-6.215 1.593 12.95 12.95 0 0 1-5.092-1.047 215 215 0 0 0 2.453-4.16c.043.016.092.032.136.043.127.045.246.083.377.116a.13.13 0 0 0 .065.016c.16.038.323.077.481.104.011.011.022.011.038.011q.198.04.394.065c.165.022.323.044.481.054.076.011.159.017.235.017.136.005.283.011.421.011a8.13 8.13 0 0 0 7.74-5.563q.081-.252.153-.512a8.2 8.2 0 0 0 .201-3.123 4 4 0 0 0-.087-.518v-.006a3 3 0 0 0-.098-.437c-.011-.044-.016-.093-.033-.136-.038-.147-.087-.289-.13-.437a9 9 0 0 0-.378-.939c-.005-.016-.016-.027-.016-.043a5 5 0 0 0-.246-.459 8 8 0 0 0-.262-.437l-.011-.011c-.094-.147-.203-.294-.306-.436-.087-.114-.169-.225-.268-.334a4 4 0 0 0-.213-.245c-.043-.054-.092-.103-.141-.158a3 3 0 0 0-.263-.257c-.017-.016-.027-.033-.044-.044-.054-.054-.114-.103-.169-.158l-.005-.005c-.055-.054-.115-.098-.176-.147a5 5 0 0 0-.376-.296c-.005-.01-.005-.01-.011-.005v-.005a180 180 0 0 0 2.043-4.379"/><path fill="#fdfdfd" d="M450.165 372.465s2.114-3.4 5.293-8.925a12.8 12.8 0 0 1-1.726 6.191 12.97 12.97 0 0 1-4.981 4.864z"/><path fill="#f05601" d="M453.734 369.73c-10.177 17.845-24.21 38.265-41.885 54.444 15.328-17.506 31.889-42.085 31.889-42.085l5.003-7.49c0-.006.006-.006.006-.006a12.84 12.84 0 0 0 4.987-4.863"/><path fill="#22245c" d="M448.783 358.037a2 2 0 0 0-.211-.245zM448.423 357.638a4 4 0 0 0-.262-.254q.14.116.262.254"/><path fill="#fdfdfd" d="M448.997 352.082c.142.082.285.17.421.252a203 203 0 0 1-2.037 4.382q-.015-.016-.022-.016c-.055-.05-.116-.088-.176-.131q-.082-.065-.174-.12a5 5 0 0 0-.394-.245c-.169-.093-.333-.187-.502-.263a3 3 0 0 0-.383-.174 6 6 0 0 0-.6-.229q-.123-.041-.245-.078a.16.16 0 0 0-.083-.021 2 2 0 0 0-.284-.077 2 2 0 0 0-.312-.07v-4.841c1.678.228 3.311.78 4.791 1.631"/><path fill="#22245c" d="M444.878 355.473c.087.016.169.049.245.076q-.123-.042-.245-.076M444.513 355.375"/><path fill="#202541" d="M451.363 182.538a213 213 0 0 0-5.796-12.539 12 12 0 0 1-1.361.328v180.129a13 13 0 0 1 4.797 1.626c.141.082.284.17.42.252a233 233 0 0 0 1.945-4.449c11.078-26.174 16.693-53.991 16.693-82.677-.006-28.673-5.626-56.49-16.698-82.67"/><path fill="#22245c" d="M444.512 355.375c.094.022.186.049.284.076.027 0 .055.011.082.022.082.022.17.049.246.076q.309.098.601.229.195.08.382.175c.169.077.333.169.503.262.131.076.267.158.393.245q.091.058.175.121c.06.044.12.082.174.131q.015 0 .022.016v.006a199 199 0 0 1-3.173 6.37v-7.8c.109.011.213.038.311.071M444.207 363.099v.523h-.272c.092-.18.185-.349.272-.523"/><path fill="#fefefe" d="M444.205 349.932v.523l-.436-.049z"/><path fill="#f1cf25" d="M444.208 348.147a116 116 0 0 1-3.343-2.931V171.977l.929-1.432h.076c.782 0 1.573-.07 2.338-.212z"/><path fill="#fefefe" d="M440.864 345.216a111 111 0 0 0 3.343 2.932v1.789l-.438.475a13.334 13.334 0 0 0-2.911.055v-5.251z"/><path fill="#1e205d" d="M443.786 165.54a6 6 0 0 0 .407-.113c-.136.047-.272.08-.407.113"/><path fill="#22245c" d="M444.189 355.299c-.104-.016-.207-.038-.311-.055.104.011.213.028.311.055M443.377 364.676l.732 1.501-2.097 1.015q.694-1.245 1.365-2.516M443.933 363.623q-.27.53-.552 1.053l-.513-1.053z"/><path fill="#22245c" d="M442.012 355.145c.168-.016.343-.016.518-.016q.23 0 .454.016l.25.016.209.017c.092.011.196.021.288.043.049 0 .093.006.142.022a5 5 0 0 1 .328.061v7.795c-.087.174-.174.348-.272.523h-1.066l-.218-.447-.929.447h-.858v-8.318c.115-.023.23-.05.35-.061.038-.016.076-.016.114-.016.088-.017.171-.028.258-.038a3 3 0 0 1 .432-.044"/><path fill="#22245c" d="m442.65 363.175.218.447h-1.147z"/><path fill="#f05601" d="M442.53 376.194c2.213 0 4.338-.568 6.217-1.594l-5.003 7.489s-16.568 24.58-31.89 42.086c-6.785 6.211-12.433 11.381-17.124 15.677-12.778 9.509-25.975 15.163-30.705 10.83.399-.983.89-2.244 1.436-3.625h.006c14.606-8.827 28.104-19.41 40.341-31.643a222 222 0 0 0 3.998-4.105c.016-.021.043-.049.065-.072.448-.463.891-.927 1.311-1.391.044-.044.088-.093.126-.131 9.924-10.666 18.664-22.221 26.137-34.57a12.9 12.9 0 0 0 5.085 1.049"/><path fill="#1e205d" d="M448.915 153.554a8.14 8.14 0 0 1-2.982 11.129 7 7 0 0 1-.902.443c-.131.054-.257.109-.388.152a3 3 0 0 1-.333.115c-.033.016-.066.022-.099.032h-.005v.006c-.005 0-.005 0-.011-.006a5 5 0 0 1-.41.115q-.229.065-.47.098a4 4 0 0 1-.359.054c-.083.017-.165.022-.246.028-.055.01-.12.016-.18.016a3 3 0 0 1-.285.016c-.131.011-.267.011-.399.011q-.253 0-.508-.016c-.158-.011-.316-.022-.475-.044q-.188-.023-.376-.054c-.011 0-.016 0-.034-.006q-.137-.023-.283-.054c-.076-.017-.158-.027-.241-.055-.044-.011-.082-.016-.12-.027s-.076-.016-.12-.027a8.2 8.2 0 0 1-1.529-.595 6 6 0 0 1-.727-.415 3 3 0 0 1-.305-.207c-.016-.011-.038-.022-.056-.039a1 1 0 0 1-.131-.092c-.043-.033-.081-.066-.125-.098a1 1 0 0 1-.136-.109 6.919 6.919 0 0 1-.961-.929 3 3 0 0 1-.22-.261q-.099-.123-.19-.247a7.5 7.5 0 0 1-.519-.785c-.071-.131-.143-.256-.209-.387a2 2 0 0 1-.092-.192 7 7 0 0 1-.311-.742c-.034-.082-.061-.169-.088-.251a3 3 0 0 1-.104-.355c-.016-.066-.038-.131-.054-.202-.022-.076-.044-.152-.055-.234-.016-.061-.027-.132-.038-.192a3 3 0 0 1-.07-.409 7 7 0 0 1-.039-.355c-.016-.125-.021-.245-.027-.366-.011-.131-.011-.262-.011-.398 0-.169.006-.344.017-.513.005-.158.016-.311.043-.47.011-.087.017-.169.038-.256q.017-.148.049-.306c.022-.131.055-.267.093-.398q-.001-.008.005-.016c.017-.082.044-.169.066-.247.022-.092.054-.185.087-.283.054-.191.132-.383.208-.568.055-.131.109-.267.169-.399a6 6 0 0 1 .312-.588q.091-.175.207-.339.18-.296.399-.568c.076-.098.158-.202.246-.3.049-.06.098-.126.158-.181q.123-.137.245-.267c.127-.125.247-.245.378-.36.016-.017.032-.028.054-.049a3 3 0 0 1 .317-.256 7 7 0 0 1 1-.683 8.15 8.15 0 0 1 8.095-.032 8.04 8.04 0 0 1 3.037 3.013"/><path fill="#fefcfd" d="m437.849 166.267-1.879 2.855a12.94 12.94 0 0 1-5.31-5.033q-.452-.78-.78-1.6a12.5 12.5 0 0 1-.853-3.34 13 13 0 0 1 .557-5.563c.35-1.053.831-2.069 1.442-3.012a12.4 12.4 0 0 1 1.95-2.332 13 13 0 0 1 2.42-1.801 12.9 12.9 0 0 1 8.963-1.485 13.05 13.05 0 0 1 6.271 3.188 12.6 12.6 0 0 1 2.431 3.03c0 .006.005.006.005.011a12.7 12.7 0 0 1 1.426 3.662.02.02 0 0 1 .006.011 12.9 12.9 0 0 1-.142 6.119 12.84 12.84 0 0 1-6.024 7.844 12.86 12.86 0 0 1-6.452 1.731h-.077l.22-.344zm-3.354-5.142c.027.065.054.13.092.19.06.132.132.258.209.388q.238.418.519.786.09.123.19.247c.066.092.136.174.219.261a7 7 0 0 0 .753.758c.066.06.131.12.209.171.043.043.092.076.136.109.044.032.082.065.125.098q.065.05.131.092a.2.2 0 0 0 .056.038q.148.108.305.207.35.238.727.416c.098.054.207.103.311.152q.597.271 1.218.443c.044.011.082.016.12.027s.076.016.12.027q.126.031.241.055c.093.022.191.043.283.054.017.006.022.006.033.006.127.021.252.043.377.054q.238.026.475.044c.171.016.334.016.508.016.132 0 .269 0 .399-.011l.285-.016c.06 0 .125-.011.18-.017q.122-.009.246-.027.188-.023.36-.054.24-.033.469-.098c.138-.033.28-.066.41-.115.006.006.006.006.011.006v-.006h.006c.032-.011.065-.016.098-.032.116-.033.224-.071.333-.115q.194-.064.389-.154.457-.187.901-.441c3.9-2.255 5.239-7.233 2.982-11.131a8.06 8.06 0 0 0-3.042-3.012 8.15 8.15 0 0 0-8.096.033 9 9 0 0 0-.42.256c-.202.13-.399.273-.579.426a7 7 0 0 0-.317.256c-.017.016-.039.033-.055.049a6 6 0 0 0-.377.361 4 4 0 0 0-.245.267 2 2 0 0 0-.16.181 6 6 0 0 0-.245.299c-.141.18-.279.372-.399.568-.076.109-.141.224-.207.338a6.428 6.428 0 0 0-.48.989 7 7 0 0 0-.209.567 5 5 0 0 0-.087.284c-.022.081-.049.17-.065.246q-.007.016-.006.016c-.032.131-.065.267-.092.398-.017.104-.038.208-.049.307a3 3 0 0 0-.038.256c-.022.157-.04.311-.045.469-.017.169-.017.344-.017.514a6.915 6.915 0 0 0 .04.764c.011.12.016.234.038.354.016.137.038.279.071.41.011.065.016.13.038.19q.015.123.054.236.024.097.055.201.04.181.103.356c.022.087.055.169.087.25q.14.375.318.743"/><path fill="#fefcfd" d="M440.863 170.503a12.9 12.9 0 0 1-4.894-1.381l1.879-2.856 4.156 3.936-.218.344q-.464-.001-.923-.043"/><path fill="#f1cf25" d="M440.865 170.503q.46.042.929.044l-.929 1.429z"/><path fill="#fdfdfd" d="M440.865 351.783q.768.081 1.546.131l-1.546 1.709z"/><path fill="#fdfdfd" d="M440.865 350.461a13.4 13.4 0 0 1 2.911-.054l-1.36 1.506a35 35 0 0 1-1.546-.131v-1.321z"/><path fill="#fdfdfd" d="M441.587 355.183c-.089.011-.171.016-.258.038a.4.4 0 0 0-.114.016c-.114.017-.236.033-.35.061v-1.676l1.546-1.709 1.36-1.506c.141.017.29.033.437.049v4.848q-.008-.007-.016-.006a3 3 0 0 0-.312-.055.4.4 0 0 0-.142-.022 6 6 0 0 0-.29-.044 1 1 0 0 0-.207-.016 2 2 0 0 0-.252-.016 6 6 0 0 0-.452-.017q-.264 0-.52.017a4 4 0 0 0-.43.038"/><path fill="#22245c" d="M440.865 355.304"/><path fill="#202541" d="M440.863 345.216c-8.734-7.937-28.672-28.068-38.754-54.51-5.065-13.281-8.747-27.183-11.624-40.584l50.384-78.145v173.239z"/><path fill="#00e9bf" d="M435.969 169.121a12.8 12.8 0 0 0 4.895 1.382v1.474l-50.386 78.145a467 467 0 0 1-2.425-12.047l46.512-66.83z"/><path fill="#fefefe" d="M440.865 350.462a13 13 0 0 0-3.229.857c-28.356-5.261-46.545-39.45-50.855-53.61-4.6-15.092-10.837-36.758-14.345-71.763l-.033-.334c-3.069-30.339-10.559-53.788-12.447-59.346 8.756 1.414 14.999 1.316 14.999 1.316s.764 3.663 5.473 26.857c2.338 11.534 4.463 26.878 7.626 43.636l-6.365 9.148 6.572 6.344 2.218-3.444c2.879 13.399 6.56 27.303 11.625 40.584 10.082 26.442 30.026 46.567 38.755 54.509v5.246z"/><path fill="#fdfdfd" d="M437.636 351.324a13 13 0 0 1 3.227-.857v1.321a44 44 0 0 1-3.227-.464"/><path fill="#fdfdfd" d="M437.634 351.324c1.065.197 2.142.355 3.229.464v1.84l-2.284 2.516c0 .006-.005.006-.005.006-.158.087-.318.174-.465.278a6 6 0 0 0-.437.306c-.147.103-.283.218-.426.338a6 6 0 0 0-.403.366q-.133.122-.241.245a7.7 7.7 0 0 0-1.382 1.992 3 3 0 0 0-.169.372v.005c-.011.006-.011.011-.011.017l-.203.212a56 56 0 0 1-4.905.087 13 13 0 0 1 1.404-3.558 12.97 12.97 0 0 1 6.298-5.486"/><path fill="#22245c" d="M449.363 358.819q.14.216.262.437.132.228.246.459c.006.016.017.027.017.043.07.147.13.294.196.447.065.165.132.323.181.491.049.142.092.285.131.438.016.049.021.092.032.136.038.141.071.29.098.437v.005c.033.169.06.349.087.519a8.1 8.1 0 0 1-.201 3.121c-.049.17-.098.345-.153.513a9 9 0 0 1-.295.753c-.115.247-.24.497-.377.739a8.14 8.14 0 0 1-7.488 4.06l-.236-.016a5 5 0 0 1-.481-.055 5 5 0 0 1-.392-.065c-.017 0-.028 0-.039-.011a6 6 0 0 1-.481-.105c-.022-.005-.049-.011-.065-.016a4 4 0 0 1-.376-.115c-.051-.01-.094-.027-.138-.043a174 174 0 0 0 2.121-3.788l2.097-1.015-.733-1.502q.28-.522.553-1.052h.272v-.525a191 191 0 0 0 3.174-6.37c.006-.005.006-.005.011.006q.196.138.376.295c.061.049.121.093.176.147l.005.006c.055.054.114.098.169.158a.2.2 0 0 1 .044.043c.093.082.175.169.262.256.055.056.098.105.142.16q.114.114.214.245.136.162.267.333c.103.137.208.284.306.436.011-.016.011-.011.016-.005M439.126 355.872l-.277.129c.086-.043.179-.091.277-.129"/><path fill="#fdfdfd" d="M438.455 370.331q.238.138.476.251.015.01.022.011a7 7 0 0 0 .934.388 208 208 0 0 1-2.453 4.159q-.706-.296-1.371-.683a12.8 12.8 0 0 1-3.338-2.761l4.539-2.205c.094.082.181.158.279.229.125.093.245.18.372.272.038.022.082.056.125.083.136.093.279.175.415.256M438.58 356.144l2.283-2.516v1.675a6.584 6.584 0 0 0-.502.119 6 6 0 0 0-.383.116c-.011.006-.016.006-.022.011a7 7 0 0 0-.83.327c-.093.038-.185.087-.278.131-.076.038-.158.077-.23.121-.016.005-.022.011-.038.016"/><path fill="#1e205d" d="M438.475 165.038c-.104-.049-.207-.092-.309-.152.096.054.2.109.309.152"/><path fill="#22245c" d="M437.549 369.725a6 6 0 0 1-.279-.229l4.741-2.298a174 174 0 0 1-2.119 3.788c-.152-.055-.306-.109-.453-.169a6 6 0 0 1-.481-.219q-.015-.002-.022-.011a7 7 0 0 1-.475-.251c-.136-.081-.279-.163-.41-.25q-.066-.043-.125-.083c-.131-.098-.252-.191-.377-.278M437.269 369.495a3 3 0 0 1-.305-.272c.103.092.201.185.305.272"/><path fill="#fdfdfd" d="M435.183 366.8c.017.044.044.087.066.131q.083.188.19.359l.006.006q.096.189.219.361a4.936 4.936 0 0 0 .294.437c.208.283.437.561.695.824.038.043.076.081.119.125q.06.064.126.12a.3.3 0 0 0 .071.06c.099.098.202.192.306.273l-4.539 2.205a13 13 0 0 1-1.841-2.821z"/><path fill="#202541" d="M436.067 374.463q.666.387 1.372.683a211.7 211.7 0 0 1-27.575 36.093 1 1 0 0 0-.065.071c-14.318 14.573-40.336 25.545-40.336 25.545.689-1.751 1.143-2.914 1.143-2.914 3.441-8.439 8.865-24.33 13.617-38.685l48.512-23.555a12.9 12.9 0 0 0 3.332 2.762"/><path fill="#22245c" d="M435.761 367.815a1.3 1.3 0 0 1-.098-.158 4 4 0 0 1-.218-.361l-.006-.006a6 6 0 0 1-.192-.359c-.021-.044-.049-.087-.065-.132l6.539-3.176h1.147l.513 1.053c-.448.845-.902 1.687-1.366 2.516l-4.74 2.299a4 4 0 0 1-.306-.274 1 1 0 0 1-.071-.06 1 1 0 0 1-.125-.12 8.228 8.228 0 0 1-.815-.95 4 4 0 0 1-.197-.272M438.574 356.15l-3.528 3.902c.049-.125.103-.246.169-.371.077-.164.165-.322.252-.48a7.8 7.8 0 0 1 1.13-1.512 2 2 0 0 1 .241-.246q.197-.195.404-.366.205-.181.427-.338c.141-.109.288-.208.435-.306.154-.109.312-.196.47-.283"/><path fill="#22245c" d="M434.806 365.865a5 5 0 0 1-.114-.364c-.034-.12-.061-.236-.094-.356a1 1 0 0 1-.033-.158c-.016-.076-.038-.158-.049-.239l-.049-.274c-.016-.082-.022-.164-.033-.245a8 8 0 0 1-.043-1.397 6 6 0 0 1 .022-.339q.001-.04.011-.088c.005-.081.016-.158.027-.239q.025-.231.076-.459.04-.237.104-.475a6 6 0 0 1 .186-.595v-.006c.016-.054.038-.098.055-.152a.3.3 0 0 1 .032-.093q.057-.165.131-.323c0-.005 0-.011.011-.016v-.006l3.529-3.902s.006 0 .006-.006c.016-.005.022-.016.038-.016.071-.044.152-.082.229-.12.092-.049.181-.092.279-.131.114-.054.223-.103.338-.147.164-.066.322-.132.491-.181.011-.005.016-.005.022-.011q.189-.065.383-.114c.07-.016.137-.038.208-.054a3 3 0 0 1 .294-.066v8.319h.858l-6.538 3.177c-.011-.022-.016-.044-.027-.066-.061-.132-.121-.257-.17-.393a3 3 0 0 1-.18-.465"/><path fill="#fefcfd" d="M434.992 153.232a6 6 0 0 0-.207.336c.06-.114.13-.229.207-.336"/><path fill="#1e205d" d="M434.495 161.125"/><path fill="#fdfdfd" d="M429.934 360.375q2.474.068 4.905-.088l.203-.213a4 4 0 0 0-.132.323.2.2 0 0 0-.033.093c-.016.054-.038.098-.055.152v.006c-.016.054-.038.098-.054.152q-.074.213-.131.443a5 5 0 0 0-.103.475c-.033.152-.055.305-.077.457q-.022.121-.028.241a.4.4 0 0 0-.011.087c-.016.115-.016.224-.022.338-.027.47-.016.934.044 1.399.012.081.018.163.034.245.016.092.027.18.049.272.011.082.027.165.049.241a.7.7 0 0 0 .033.158c.027.12.054.234.092.356q.05.187.115.364c.054.164.108.323.175.476q.08.195.169.392c.011.022.016.045.027.067l-4.288 2.079a13.03 13.03 0 0 1-.961-8.515"/><path fill="#1e205d" d="M433.851 159.148c.01.06.021.13.038.19a.8.8 0 0 1-.038-.19M433.742 158.385q.015.175.038.352a2.5 2.5 0 0 1-.038-.352"/><path fill="#1f2a48" d="M405.801 115.016c10.231 10.224 19.31 21.332 27.17 33.226a12.7 12.7 0 0 0-1.95 2.332l-103.443-49.641a97 97 0 0 0-5.068-5.213l-26.64-39.1a210.4 210.4 0 0 1 42.36 12.866c22.696 9.601 43.329 22.904 61.425 39.635a208 208 0 0 1 6.146 5.895"/><path fill="#fdfdfd" d="M430.896 368.88a13 13 0 0 0 1.839 2.821l-48.511 23.555c.491-1.495.977-2.976 1.458-4.422z"/><path fill="#986f09" d="M417.878 109.655c5.21 6.223 19.9 24.089 26.47 35.296a12.934 12.934 0 0 0-11.383 3.286c-7.86-11.894-16.939-23.003-27.17-33.227a209 209 0 0 0-6.145-5.895c6.713-.66 13.262-.158 18.228.54"/><path fill="#f9b309" d="m327.579 100.932 103.447 49.64a13 13 0 0 0-1.442 3.014l-96.733-46.42a117 117 0 0 0-5.272-6.234M429.021 159.148c.131 1.129.41 2.254.853 3.341h-52.992a131 131 0 0 1-3.539-3.341z"/><path fill="#01ff94" d="m428.847 110.998-6.708-.819a228.3 228.3 0 0 0-56.87-44.575l3.623-3.007c18.359 10.31 35.211 23.084 50.298 38.161a237 237 0 0 1 9.657 10.24"/><path fill="#ff7801" d="M486.967 260.897c-.431-30.012-6.538-59.133-18.167-86.601-9.833-23.232-23.243-44.471-39.958-63.298l-6.708-.819c.07.071.13.137.203.208a228 228 0 0 1 28.283 37.746 12.6 12.6 0 0 1 2.431 3.029c0 .005.006.005.006.011a12.8 12.8 0 0 1 1.425 3.663.02.02 0 0 1 .006.011c17.715 32.02 27.913 68.735 28.202 107.765.011.571.011 1.15.011 1.723q.001 5.716-.283 11.366a172 172 0 0 1-.181 3.308 10.04 10.04 0 0 0 4.179 1.954c.109-1.561.207-3.123.283-4.694q.303-5.938.301-11.934a233 233 0 0 0-.033-3.438"/><path fill="#e5e2e5" d="m417.878 109.655 4.261.524c.071.071.131.137.201.208a93 93 0 0 0-4.462-.732"/><path fill="#986f09" d="M417.878 109.655c1.687.235 3.195.492 4.457.737a228 228 0 0 1 28.284 37.747 13.03 13.03 0 0 0-6.271-3.188c-6.57-11.207-21.26-29.078-26.47-35.296"/><path fill="#202541" d="M405.801 415.414c-12.236 12.227-25.734 22.816-40.34 31.643 1.326-3.367 2.939-7.483 3.998-10.202 0 0 26.017-10.966 40.334-25.545a203 203 0 0 1-3.992 4.104"/><path fill="#f05601" d="M394.723 439.851c4.692-4.302 10.341-9.465 17.125-15.677-4.956 5.66-10.991 11.114-17.125 15.677"/><path fill="#ffe9b6" d="M393.899 365.32s-3.633 11.518-8.221 25.508l-9.014 4.373c4.103-13.697 6.534-25.869 7.49-31.104 5.582 1.021 9.745 1.223 9.745 1.223"/><path fill="#fefefe" d="m390.479 250.121-2.218 3.445-6.57-6.343 6.363-9.148a454 454 0 0 0 2.425 12.046"/><path fill="#fdfdfd" d="m376.664 395.206 9.012-4.372c-.475 1.452-.967 2.932-1.458 4.421l-8.914 4.324a219 219 0 0 0 1.36-4.373"/><path fill="#f6515b" d="M367.335 358.824a86 86 0 0 0 3.572 1.573c4.462 1.817 9.226 2.974 13.246 3.711-.962 5.235-3.392 17.402-7.489 31.104l-17.152 8.324c3.446-16.73 6.746-37.708 7.823-44.712"/><path fill="#fefefe" d="M376.888 162.489h-4.713v-3.341h1.174a123 123 0 0 0 3.539 3.341"/><path fill="#ff8d02" d="M371.502 461.108q-1.605.238-2.901.092a223 223 0 0 0 8.259-5c-4.872 4.465-5.32 4.87-5.358 4.908"/><path fill="#fde5d0" d="M369.465 436.855c-.323.148-5.451-3.52-7.882-5.284a51 51 0 0 0 1.005-1.714c5.217-9.17 9.433-19.99 12.716-30.285l8.916-4.322c-4.753 14.361-10.177 30.246-13.619 38.685.005.006-.447 1.169-1.136 2.92"/><path fill="#ff8d02" d="m368.897 62.597-3.621 3.007C332.72 47.57 295.292 37.296 255.503 37.296V33c31.251 0 61.567 6.12 90.108 18.183a233 233 0 0 1 23.286 11.414M364.019 450.682c4.731 4.334 17.928-1.321 30.704-10.83-8.98 8.221-14.492 13.265-17.868 16.348a223 223 0 0 1-8.259 5c-1.223-.136-2.228-.54-3.015-1.255-3.02-2.773-3.506-4.487-2.162-7.784.152-.36.359-.868.6-1.479"/><path fill="#a70d75" d="M367.333 358.819c-1.075 7.009-4.375 27.987-7.822 44.712l-14.824 7.194c3.746-26.528 3.447-62.987 3.447-62.987s9.587 6.578 19.199 11.081"/><path fill="#feca3c" d="M386.781 297.71c-4.6-15.094-10.838-36.758-14.345-71.765l-.033-.332c-3.069-30.339-10.559-53.79-12.449-59.346-5.877-.945-12.885-2.56-19.899-5.345 2.207 3.516 6.474 11.142 9.975 22.359 4.965 15.901 5.839 36.622 5.839 36.622s.092 2.266.284 5.911c.327 6.496.95 17.38 1.835 27.703 1.382 16.119 4.048 42.555 14.23 67.938 9.504 23.691 34.566 38.33 57.716 38.919a12.8 12.8 0 0 1 1.404-3.558 12.97 12.97 0 0 1 6.298-5.492c-28.356-5.262-46.545-39.454-50.855-53.614"/><path fill="#fefefe" d="M291.008 100.316c2.743 1.61 5.386 3.379 8.003 5.191a124 124 0 0 1 7.642 5.775 151 151 0 0 1 14.191 12.997c-3.818-5.207-8.264-9.94-12.968-14.405-4.731-4.427-9.832-8.505-15.294-12.074-2.742-1.78-5.561-3.445-8.489-4.93-2.939-1.457-5.948-2.789-9.046-3.919-.775-.278-1.568-.53-2.348-.78-.399-.126-.782-.263-1.186-.377l-1.196-.322c-.803-.208-1.596-.459-2.409-.622l-2.43-.53c-.815-.175-1.64-.267-2.458-.404l-1.235-.191c-.41-.055-.826-.087-1.24-.131-.825-.071-1.65-.17-2.481-.224l-.791-.027V71.32c25.144.497 42.672 7.14 55.891 16.632l9.904 14.525 9.783 4.695c4.637 5.851 8.68 11.927 12.553 17.806 10.858 16.507 21.871 28.237 27.95 34.182h-1.174v3.34h4.715c.753.682 1.19 1.054 1.239 1.103-8.423-1.081-16.573-3.15-24.4-5.879 0 0-.006 0-.006-.005-8.308-4.335-16.589-10.252-27.153-18.516-10.565-8.259-17.518-15.208-33.829-26.147-14.421-9.672-31.665-10.791-35.468-10.928V89.142l.563.017c.776.054 1.545.13 2.322.201.388.039.775.06 1.163.115l1.152.17c.77.125 1.547.207 2.311.365 3.076.546 6.091 1.392 9.078 2.342 2.977.993 5.894 2.183 8.762 3.51 1.42.698 2.841 1.386 4.228 2.14 1.41.72 2.776 1.528 4.151 2.314"/><path fill="#fdfdfd" d="m344.687 410.725 14.825-7.194c-.29 1.419-.59 2.799-.88 4.142l-14.556 7.063c.218-1.304.421-2.647.611-4.011"/><path fill="#fdfdfd" d="M358.632 407.673c.29-1.343.591-2.723.879-4.144l17.152-8.324a252 252 0 0 1-1.355 4.373z"/><path fill="url(#a)" d="m344.076 414.737 14.557-7.063a314 314 0 0 1-1.01 4.47c-4.818 20.421-19.562 38.215-39.123 50.317-19.556 12.108-51.232 14.258-51.232 14.258 4.218-2.161 8.577-6.572 12.618-11.686 21.697 3.575 55.138-15.294 61.83-39.183.912-3.253 1.693-7.024 2.36-11.113"/><path fill="url(#b)" d="M385.027 347.197c-6.681-5.982-17.113-23.669-21.566-41.604-4.452-17.943-5.981-27.572-6.861-50.471-.519-13.663-.682-23.559-.726-29.318-.027-3.892-.005-5.895-.005-5.895s-.874-20.722-5.839-36.622c-3.501-11.218-7.768-18.844-9.975-22.359-.284-.114-.563-.229-.847-.344-17.458-7.162-23.297-10.557-23.477-10.66.306.403 19.845 26.594 24.516 56.114a156 156 0 0 1 1.758 17.516c.977 21.742-2.415 40.166-2.415 58.517 0 23.085 9.964 66.404 55.176 74.057.006 0-3.058-2.953-9.739-8.931"/><path fill="#202541" d="m296.804 437.684 47.277-22.947c-.667 4.088-1.453 7.86-2.365 11.113-6.692 23.887-40.133 42.757-61.83 39.182 8.479-10.732 15.541-24.585 16.918-27.348"/><path fill="#ffbb01" d="M292.74 113.045c16.317 10.939 23.265 17.888 33.829 26.147 10.559 8.264 18.846 14.181 27.154 18.516-23.216-8.091-43.563-21.966-59.448-32.845-21.238-14.553-37.002-17.582-37.002-17.582v-5.164c3.802.136 21.046 1.261 35.467 10.928"/><path fill="#202541" d="M429.579 153.586a12.9 12.9 0 0 0-.559 5.563h-55.673c-6.079-5.939-17.086-17.671-27.95-34.182-3.873-5.879-7.916-11.949-12.553-17.806z"/><path fill="url(#c)" d="M313.42 204.155c7.227 2.309 13.378 6.61 16.464 9.028.95 3.248 1.715 6.191 2.125 8.445l-18.157-1.675c.776-.88 1.311-1.573 1.523-1.878.586-.874.323-1.856-.6-1.856l.355-1.229c1.584.568 2.333.438 2.518-.311.247-.982-.769-1.452-6.019-4.323-5.255-2.872-7.773-3.772-12.045-3.554-4.266.219-10.782 3.319-15.524 9.52-1.988 2.593-4.272 4.645-6.325 6.403-2.634 2.254-4.894 4.028-5.638 5.863-1.863-.65-5.288-1.343-7.27-1.152.005-1.922.005-3.816.005-5.672 0-13.373 3.906-17.517 8.357-18.607 4.453-1.098 18.938-1.459 32.661-.514 2.588.18 5.139.732 7.57 1.512"/><path fill="#fefefe" d="m327.579 100.932-2.256-1.08-2.819-4.132a95 95 0 0 1 5.075 5.212M322.51 95.72a86 86 0 0 0-9.342-7.779l-21.904-32.15c1.54.25 3.076.529 4.605.829z"/><path fill="#fefefe" d="m332.85 107.16-9.783-4.694-9.903-14.525a85.5 85.5 0 0 1 9.34 7.778l2.818 4.132 2.257 1.081a119 119 0 0 1 5.271 6.228"/><path fill="#fffdfe" d="M295.073 434.585c.704-1.328 1.42-2.714 2.157-4.177 3.628-7.221 6.385-11.949 8.582-15.747q-.001-.009.005-.017c2.168-3.761 3.77-6.606 5.101-10.055 2.678-6.949 7.222-23.194 8.43-37.359.928-10.966-2.005-22.134-6.757-32.146a94 94 0 0 0-4.573-8.438c-7.282-11.928-33.555-29.755-36.619-31.344-3.066-1.582-2.191-2.675-1.312-3.335.874-.661 9.527-5.688 9.527-5.688s13.246 4.427 23.969 14.001c10.728 9.57 14.071 15.918 14.071 15.918s-10.783-27.785-8.925-28.384c1.857-.601 16.857 8.749 22.111 22.702 5.255 13.945 4.108 42.827 0 58.908s-13.192 29.324-18.938 40.536c-3.823 7.462-9.138 17.064-12.263 22.642l-4.337 2.108z"/><path fill="#15134a" d="M292.577 97.799c5.467 3.575 10.563 7.647 15.294 12.074 4.703 4.466 9.149 9.198 12.968 14.406a150 150 0 0 0-14.191-12.997 124 124 0 0 0-7.642-5.776c-2.616-1.812-5.261-3.58-8.003-5.191-1.376-.786-2.742-1.594-4.151-2.309-1.388-.753-2.814-1.446-4.228-2.14-2.863-1.326-5.78-2.516-8.762-3.51-2.988-.95-6.008-1.8-9.079-2.341-.764-.158-1.54-.246-2.311-.366l-1.152-.17c-.388-.053-.776-.075-1.163-.114-.776-.065-1.545-.147-2.322-.201l-.562-.017v-3.81l.791.027c.831.055 1.656.153 2.481.224.414.044.83.076 1.24.131l1.235.191c.818.136 1.649.23 2.458.404l2.43.53c.813.169 1.606.42 2.409.622l1.196.322c.399.115.787.25 1.186.377.78.25 1.573.507 2.348.78 3.098 1.13 6.113 2.462 9.046 3.92 2.922 1.49 5.747 3.154 8.484 4.934"/><path fill="#250ef0" d="M305.796 377.101s2.272 7.177 2.49 17.538c.187 8.782-.049 12.904-1.545 17.489a39 39 0 0 1-.929 2.516q-.007.008-.006.017c-2.189 3.799-4.948 8.526-8.581 15.747a236 236 0 0 1-2.157 4.177 185 185 0 0 1-4.938 8.727c-4.95-.381-21.157-1.68-24.177-2.292-3.579-.731-4.671-3.427 0-7.145 4.67-3.723 35.543-33.183 37.499-42.446 1.901-9.018.098-18.111.005-18.581a67 67 0 0 1 2.339 4.253"/><path fill="#f9db00" d="M306.741 412.128c5.774-9.121 9.138-59.215 7.532-71.098-.278-2.046-.913-4.013-1.802-5.889l.114-.056c4.753 10.017 7.686 21.179 6.757 32.146-1.202 14.165-5.746 30.411-8.429 37.358-1.332 3.456-2.939 6.3-5.101 10.056.355-.868.66-1.699.929-2.517"/><path fill="#162653" d="M314.274 341.03c1.606 11.883-1.765 61.977-7.533 71.098 1.496-4.585 1.732-8.707 1.545-17.489-.218-10.361-2.49-17.538-2.49-17.538v-.006c-.017-.246-.437-8.936-1.005-19.291-.59-10.503-1.901-18.887-8.178-28.446a39 39 0 0 0-1.086-1.582c-6.364-8.849-16.328-16.097-25.766-15.41-9.997.732-14.258 5.11-14.258 5.11v-7.222s6.265-4.596 14.618-4.596c8.358 0 17.774 6.708 23.319 10.54 4.594 3.172 14.759 9.962 19.042 18.947.88 1.872 1.513 3.837 1.792 5.885"/><path fill="#071c50" d="M301.003 222.884c-6.729-.41-11.684-6.534-11.684-6.759 0-.218 5.55-4.371 10.15-5.224 4.604-.851 11.007 1.944 13.853 3.314.698.333 1.294.589 1.802.776l-.356 1.228c-.207 0-.441.049-.709.158-1.475.601-6.32 6.915-13.056 6.507"/><path fill="#fdfdfd" d="m344.076 414.737-47.278 22.947c.164-.321.247-.49.247-.49s1.016-1.796 2.588-4.603l45.054-21.871c-.19 1.37-.393 2.712-.611 4.017"/><path fill="#fffdfe" d="m296.755 437.711-1.459-3.006 4.337-2.108c-1.572 2.806-2.588 4.602-2.588 4.602s-.082.169-.247.49z"/><path fill="#ecedf6" d="m288.506 45.811 7.363 10.808c-1.535-.3-3.064-.579-4.604-.83h-.005l-5.513-8.095z"/><path fill="url(#d)" d="M286.277 261.006c4.109 5.967 4.796 10.503 5.807 15.672.765 3.909 1.219 9.22 1.393 11.578a24 24 0 0 0-2.327-1.299c-4.818-2.299-5.479-3.09-5.254-3.554.218-.47 3.583-2.789 2.572-7.085-1.01-4.296-7.281-15.973-16.638-13.952 0 0-.841-29.941.109-33.363a3 3 0 0 1 .147-.426c.744-1.835 3.004-3.609 5.638-5.863l.628.349c.261-.169.999-.316 2.654-.349-1.856 1.354-4.397 3.663-4.474 3.99-.087.361-.818 14.334.601 19.636 1.431 5.311 5.048 8.705 9.144 14.666"/><path fill="#ecedf6" d="M291.254 55.79a211 211 0 0 0-22.854-2.604c-.388-6.774-6.031-12.172-12.903-12.172v-3.718c39.788 0 77.216 10.273 109.773 28.309 21.277 11.78 40.46 26.872 56.869 44.574l-4.261-.524c-4.965-.698-11.515-1.195-18.222-.535-18.098-16.725-38.728-30.033-61.425-39.634a210 210 0 0 0-42.362-12.866l-7.363-10.808-2.764 1.877z"/><path fill="url(#e)" d="M332.151 222.446c-.043-.261-.087-.533-.141-.818l-18.157-1.675c-1.863 2.101-5.124 5.284-8.658 6.98-5.01 2.408-12.264-1.8-15.273-3.825-3.015-2.026-6.538-1.999-8.401-.738-.164.11-.328.23-.508.361 4.55-.093 6.986 2.713 11.727 6.398 4.748 3.685 9.194 5.033 15.367 2.407 6.167-2.625 19.598-7.767 19.598-7.767s-5.255 11.67-14.962 29.978c-9.706 18.308-11.749 29.175-12.333 32.746-.372 2.293.666 4.231 1.458 5.322.628-2.33 2.048-4.858 4.332-8.483.967-1.528 2.075-3.253 3.354-5.245 5.528-8.647 15.874-25.819 18.556-31.181 1.841-3.694 3.693-9.885 4.228-16.146v-.005c.245-2.838.223-5.682-.187-8.309"/><path fill="#f6f6f6" d="M327.705 223.756s-5.255 11.672-14.962 29.979c-9.706 18.308-11.749 29.176-12.333 32.747-.372 2.292.666 4.229 1.458 5.322a10.2 10.2 0 0 0-.361 2.85s-3.911-3.81-8.019-6.387c-.174-2.359-.628-7.669-1.392-11.578-1.01-5.169-1.699-9.71-5.806-15.672-4.103-5.966-7.713-9.356-9.139-14.661-1.421-5.307-.689-19.28-.601-19.635.076-.322 2.616-2.631 4.474-3.99 4.549-.093 6.985 2.712 11.727 6.397 4.747 3.684 9.193 5.033 15.366 2.408 6.156-2.638 19.588-7.78 19.588-7.78"/><path fill="url(#f)" d="M289.319 216.125c0 .219 4.949 6.343 11.684 6.758 6.736.409 11.581-5.906 13.056-6.512.268-.108.508-.159.711-.159.923 0 1.184.983.6 1.856-.207.312-.742 1.005-1.524 1.878-1.863 2.103-5.124 5.284-8.658 6.982-5.008 2.407-12.263-1.802-15.272-3.827-3.016-2.025-6.539-1.997-8.402-.736a14 14 0 0 0-.508.36c-1.655.033-2.393.175-2.654.349l-.629-.349c2.055-1.758 4.337-3.804 6.325-6.403 4.747-6.196 11.259-9.296 15.524-9.52 4.272-.218 6.79.683 12.045 3.553 5.25 2.872 6.266 3.342 6.02 4.324-.186.742-.934.878-2.518.312a17 17 0 0 1-1.802-.777c-2.847-1.37-9.248-4.158-13.854-3.313-4.588.853-10.144 5.006-10.144 5.224"/><path fill="url(#g)" d="M357.989 253.512c1.383 16.119 4.048 42.555 14.229 67.937 9.506 23.691 34.567 38.331 57.716 38.919a13 13 0 0 0 .962 8.506l-45.218 21.949c4.589-13.996 8.221-25.509 8.221-25.509s-4.163-.201-9.745-1.217c-4.025-.737-8.783-1.894-13.246-3.711a75 75 0 0 1-3.573-1.573v-.005c-9.614-4.504-19.194-11.076-19.194-11.076s.3 36.458-3.447 62.988l-45.054 21.872c3.124-5.584 8.439-15.181 12.263-22.643 5.747-11.212 14.835-24.448 18.938-40.535 4.107-16.075 5.255-44.962 0-58.909-5.255-13.953-20.255-23.303-22.112-22.702-1.858.6 8.926 28.384 8.926 28.384s-3.343-6.343-14.071-15.917-23.97-14.002-23.97-14.002c-3.173-.819-7.553.546-10.673 3.445s-8.265 7.216-13.083 7.331c-.114.005-.234 0-.355-.006v-4.672c4.217-.492 10.04-5.743 11.275-7.686 1.234-1.943 1.31-3.827 1.802-3.827.497 0 5.211 1.441 7.659 1.054 2.447-.382 4.905-2.554 5.741-3.695.841-1.152.749-2.14-1.513-5.142-2.262-3.014-5.179-3.941-7.976-1.933-2.785 2.003-6.019 3.155-6.019 3.155s-1.693-.219-1.693-11.982c0-10.131.038-22.97.049-34.885 1.988-.191 5.408.502 7.271 1.152-.06.136-.111.283-.149.425-.95 3.428-.109 33.363-.109 33.363 9.357-2.025 15.628 9.656 16.64 13.952 1.01 4.297-2.355 6.616-2.574 7.086-.218.464.437 1.255 5.255 3.553.765.366 1.551.808 2.327 1.299 4.113 2.576 8.018 6.386 8.018 6.386-.016-.96.105-1.883.361-2.848.628-2.332 2.048-4.859 4.332-8.483.967-1.529 2.075-3.253 3.354-5.245 5.528-8.648 15.874-25.82 18.556-31.181 1.841-3.69 3.693-9.885 4.228-16.146v-.006c.246-2.827.229-5.671-.18-8.302-.044-.262-.088-.535-.143-.819-.408-2.255-1.174-5.196-2.124-8.444-2.792-9.537-7.184-21.682-9.008-26.507-2.518-6.677-7.991-30.306-28.464-47.37-16.579-13.827-31.754-15.393-36.916-15.492V89.082h.011l1.765.054v18.139s15.765 3.03 37.002 17.582c15.885 10.879 36.232 24.75 59.447 32.845 0 .006.006.006.006.006 7.827 2.729 15.977 4.797 24.401 5.878-.056-.049-.486-.42-1.24-1.103h52.99q.33.821.782 1.6a12.9 12.9 0 0 0 5.309 5.032l-1.404 2.125-46.512 66.83c-3.164-16.76-5.288-32.103-7.626-43.637-4.708-23.193-5.473-26.857-5.473-26.857s-6.244.093-15-1.315c-5.877-.944-12.886-2.56-19.899-5.344-.285-.114-.563-.23-.847-.344-17.458-7.162-23.297-10.557-23.477-10.66.305.403 19.845 26.594 24.514 56.114a156 156 0 0 1 1.76 17.517c.978 21.742-2.415 40.164-2.415 58.516 0 23.085 9.964 66.404 55.176 74.057 0 0-3.064-2.954-9.744-8.931-6.681-5.982-17.115-23.668-21.567-41.606-4.451-17.941-5.981-27.57-6.86-50.469-.519-13.663-.831-29.247-.732-35.044"/><path fill="#15134a" d="m291.26 55.79 21.904 32.151c-13.219-9.487-30.753-16.136-55.891-16.632v14.023l-1.711-.055h-.065V66.855c7.129 0 12.93-5.798 12.93-12.921 0-.251-.011-.502-.022-.748a211 211 0 0 1 22.855 2.604"/><path fill="#fefefe" d="M247.342 53.934c0 4.503 3.655 8.15 8.155 8.15 4.501 0 8.156-3.647 8.156-8.15a8.15 8.15 0 0 0-8.15-8.15 8.145 8.145 0 0 0-8.089 7.167 5.7 5.7 0 0 0-.072.983m8.155-12.92c6.877 0 12.52 5.398 12.903 12.172q.023.369.022.748c0 7.123-5.801 12.92-12.93 12.92s-12.929-5.797-12.929-12.92c0-.252.011-.503.022-.748.392-6.774 6.035-12.173 12.912-12.173"/><path fill="url(#h)" d="M267.268 476.719s31.678-2.15 51.233-14.257c19.56-12.102 34.304-29.902 39.122-50.318.334-1.419.671-2.921 1.01-4.47l16.671-8.096c-3.282 10.295-7.499 21.114-12.716 30.284q-.486.862-1.005 1.715c-8.615 14.268-22.664 27.343-40.913 35.885-.005.011-.005.011-.011.005-16.895 5.448-34.375 8.723-52.243 9.777q-1.01.065-2.026.114z"/><path fill="url(#i)" d="M266.383 477.358q1.017-.05 2.027-.114a210.3 210.3 0 0 0 52.242-9.777c-15.404 7.216-33.807 11.217-54.455 9.994v-.005c.126-.06.186-.098.186-.098"/><path fill="#1e205d" d="M255.497 45.784a8.144 8.144 0 0 1 8.088 7.167c.045.322.061.65.061.982 0 4.503-3.654 8.15-8.155 8.15-4.502 0-8.155-3.647-8.155-8.15 0-.333.016-.66.06-.982.492-4.034 3.933-7.167 8.101-7.167"/><path fill="#15134a" d="m255.562 85.272 1.711.055v3.81l-1.765-.055h-.011v-3.815h.065z"/><path fill="#ecedf6" d="M255.497 37.296v3.718c-6.878 0-12.52 5.398-12.903 12.172a211 211 0 0 0-22.854 2.604l5.516-8.095-2.763-1.878-7.364 10.808a210.4 210.4 0 0 0-42.361 12.866c-22.696 9.602-43.328 22.904-61.424 39.635-6.708-.661-13.258-.164-18.223.535a84 84 0 0 0-4.457.737c41.519-44.935 100.945-73.102 166.833-73.102"/><path fill="#2702ff" d="M255.497 33.005v4.296c-65.888 0-125.313 28.167-166.844 73.091a227 227 0 0 0-18.02 22.113l-4.125-1.834a232.4 232.4 0 0 1 25.297-29.902c21.259-21.245 46.021-37.927 73.584-49.576 28.536-12.074 58.851-18.188 90.108-18.188"/><path fill="#15134a" d="M219.735 55.79a211 211 0 0 1 22.854-2.604 12 12 0 0 0-.021.748c0 7.123 5.801 12.92 12.929 12.92v18.423h-.065l-1.71.055V71.309c-25.144.496-42.673 7.14-55.891 16.632z"/><path fill="#15134a" d="M255.432 85.272h.065v3.815h-.011l-1.764.055v-3.81z"/><path fill="url(#j)" d="M329.885 213.178c-2.792-9.536-7.183-21.682-9.008-26.507-2.518-6.676-7.991-30.306-28.465-47.37-16.578-13.826-31.752-15.393-36.915-15.491-5.162.098-20.331 1.665-36.915 15.491-20.472 17.064-25.947 40.694-28.465 47.37-1.824 4.825-6.216 16.971-9.006 26.507 3.086-2.413 9.231-6.72 16.464-9.028-.984-2.25-3-8.107-1.602-15.896 1.809-10.059 8.593-24.558 18.289-35.606 9.334-10.645 28.267-18.347 41.241-18.652 12.973.305 31.906 8.007 41.241 18.652 9.69 11.048 16.474 25.547 18.288 35.606 1.399 7.789-.617 13.652-1.6 15.896 7.222 2.313 13.366 6.615 16.453 9.028"/><path fill="#fdfdfd" d="M315.022 188.254c-1.809-10.06-8.593-24.559-18.289-35.607-9.335-10.644-28.267-18.346-41.241-18.652v63.457c-.678 7.118-2.071 11.927-3.24 22.439-1.605 14.526-.671 45.865-.671 56.04 0 8.225 2.83 14.307 3.911 16.337v.098c4.216-.492 10.039-5.743 11.274-7.686s1.311-3.826 1.803-3.826c.497 0 5.212 1.44 7.659 1.054 2.441-.383 4.905-2.555 5.739-3.696.842-1.152.749-2.14-1.512-5.142-2.261-3.014-5.178-3.941-7.975-1.933-2.786 2.004-6.02 3.156-6.02 3.156s-1.693-.218-1.693-11.983c0-10.13.038-22.968.049-34.885.005-1.922.005-3.816.005-5.672 0-13.373 3.906-17.516 8.358-18.609 4.451-1.096 18.938-1.457 32.66-.512 2.594.175 5.15.732 7.581 1.507.983-2.232 2.999-8.091 1.602-15.885"/><path fill="#162653" d="M202.708 394.637c-.185 8.784.049 12.906 1.546 17.491-5.774-9.123-9.139-59.215-7.532-71.099.278-2.047.912-4.012 1.802-5.89 4.277-8.985 14.448-15.775 19.043-18.946 5.543-3.832 14.956-10.542 23.318-10.542 8.358 0 14.618 4.596 14.618 4.596v7.223s-4.261-4.378-14.257-5.109c-9.439-.688-19.402 6.561-25.767 15.41a39 39 0 0 0-1.087 1.582c-6.276 9.558-7.592 17.943-8.177 28.444a2983 2983 0 0 0-1.005 19.291v.006s-2.282 7.183-2.502 17.543"/><path fill="#fefefe" d="M269.754 312.366c-9.997.732-14.257 5.11-14.257 5.11s-4.261-4.378-14.257-5.11c-9.439-.687-19.403 6.561-25.766 15.41 1.195 1.446 4.462 4.356 11.35 4.574 9.057.283 17.699-4.11 17.96-4.242l.006-.005s4.496 3.707 10.707 4.209c6.205-.502 10.707-4.209 10.707-4.209l.005.005c.261.132 8.903 4.525 17.96 4.242 6.888-.218 10.155-3.128 11.351-4.574-6.364-8.849-16.328-16.097-25.766-15.41"/><path fill="url(#k)" d="M263.472 343.224c-1.294-1.419-3.654-3.484-7.975-3.919-4.326.435-6.686 2.5-7.975 3.919-1.071 1.168-1.961 1.949-3.212 3.259h22.385c-1.257-1.31-2.153-2.091-3.223-3.259"/><path fill="#4f00ec" d="M255.497 453.422c2.021.016 4.414.671 8.675 2.315 7.287 2.805 12.962 4.639 14.71 5.185-5.294 8.526-11.755 13.03-11.755 13.03s-3.24 3.139-8.745 3.656h-.028c-.89.089-1.846.1-2.857.018a16.4 16.4 0 0 1-2.857-.018h-.027c-5.505-.517-8.745-3.656-8.745-3.656s-6.462-4.504-11.755-13.03c1.747-.551 7.423-2.38 14.71-5.185 4.261-1.644 6.654-2.299 8.674-2.315"/><path fill="#ff8701" d="M253.722 102.122v5.164s-15.764 3.03-37.002 17.582c-15.885 10.879-36.233 24.75-59.448 32.845 8.308-4.334 16.589-10.251 27.153-18.516 10.565-8.259 17.518-15.208 33.829-26.147 14.416-9.672 31.665-10.797 35.468-10.928"/><path fill="#15134a" d="M204.341 111.283a151 151 0 0 0-14.191 12.997c3.819-5.208 8.265-9.941 12.968-14.406 4.73-4.427 9.832-8.504 15.294-12.074 2.743-1.78 5.562-3.445 8.49-4.93 2.938-1.457 5.948-2.789 9.044-3.919.777-.278 1.569-.53 2.349-.78.399-.126.782-.262 1.187-.377l1.195-.322c.804-.207 1.595-.458 2.409-.622l2.431-.53c.814-.174 1.638-.267 2.458-.404l1.235-.19c.409-.055.824-.088 1.239-.132.825-.07 1.651-.169 2.48-.223l.793-.028v3.81l-.563.017c-.776.054-1.545.13-2.322.202-.388.038-.776.06-1.163.114l-1.153.17c-.769.125-1.546.207-2.311.365-3.075.546-6.09 1.392-9.077 2.342-2.977.993-5.894 2.183-8.762 3.51-1.42.699-2.841 1.386-4.228 2.14-1.415.715-2.781 1.523-4.152 2.309-2.742 1.61-5.386 3.379-8.002 5.191a120 120 0 0 0-7.648 5.77"/><path fill="#fffdfe" d="M271.103 351.5a150 150 0 0 1-2.556-2.954 48 48 0 0 0-1.863-2.063h-22.385a52 52 0 0 0-1.863 2.063c-1.037 1.217-1.852 2.179-2.556 2.954 0 0-1.765 13.925.038 21.801 1.802 7.877 6.894 13.728 10.509 21.987a41 41 0 0 1 1.486 3.99c.17.541.334 1.082.481 1.617 1.862 6.61 2.294 12.855 3.092 14.044.797-1.189 1.234-7.429 3.086-14.033a59 59 0 0 1 .486-1.633 41 41 0 0 1 1.486-3.99c3.617-8.259 8.701-14.111 10.51-21.987 1.814-7.871.049-21.796.049-21.796"/><path fill="url(#l)" d="M282.191 369.986c-2.043-8.825-7.369-15.315-8.718-16.266-.76-.535-1.475-1.228-2.371-2.221 0 0 1.765 13.924-.038 21.802-1.803 7.876-6.894 13.728-10.51 21.987a41 41 0 0 0-1.486 3.99 70 70 0 0 0-.486 1.631c-1.856 6.606-2.293 12.845-3.086 14.035-.798-1.19-1.235-7.44-3.091-14.045a47 47 0 0 0-.481-1.616 41 41 0 0 0-1.486-3.989c-3.616-8.26-8.701-14.111-10.51-21.988-1.803-7.877-.038-21.801-.038-21.801-.896.998-1.612 1.685-2.371 2.221-1.344.95-6.675 7.44-8.718 16.266a19.7 19.7 0 0 0-.35 6.965v.006c.486 3.908 2.032 7.56 3.781 11.223.857 1.795 1.764 3.602 2.621 5.437 3.169 6.829 17.458 30.066 20.643 35.224 3.185-5.158 17.474-28.395 20.643-35.224.851-1.835 1.763-3.636 2.621-5.437 1.749-3.657 3.294-7.315 3.781-11.223v-.006a19.6 19.6 0 0 0-.35-6.971"/><path fill="url(#m)" d="M193.346 214.679c.196.775 1.005.889 2.747.229l.12 1.304c-.917.006-1.169.983-.59 1.856.209.312.744 1.005 1.524 1.878l-18.156 1.677c.409-2.256 1.173-5.197 2.124-8.445 3.087-2.413 9.231-6.72 16.464-9.028 2.43-.776 4.982-1.332 7.582-1.508 13.721-.949 28.208-.589 32.659.514 4.453 1.092 8.359 5.234 8.359 18.608 0 1.856 0 3.75.005 5.672-1.989-.192-5.409.502-7.27 1.152-.706-1.731-2.754-3.413-5.206-5.492-2.159-1.84-4.633-3.995-6.763-6.775-4.747-6.194-11.258-9.295-15.524-9.519-4.272-.219-6.79.683-12.045 3.553-5.266 2.872-6.276 3.341-6.03 4.324"/><path fill="#250ef0" d="M207.537 391.429c1.95 9.263 32.83 38.723 37.499 42.446 4.671 3.723 3.579 6.42 0 7.146-3.02.616-19.227 1.91-24.175 2.293a187 187 0 0 1-4.94-8.729 220 220 0 0 1-2.157-4.177c-3.627-7.221-6.385-11.948-8.581-15.747q.001-.009-.006-.016a40 40 0 0 1-.929-2.517c-1.496-4.585-1.73-8.706-1.545-17.489.218-10.36 2.49-17.538 2.49-17.538v-.006a69 69 0 0 1 2.333-4.253c-.087.476-1.89 9.57.011 18.587"/><path fill="url(#n)" d="M155.142 219.456c.164 5.813-.23 21.998-.754 35.66-.88 22.898-2.409 32.527-6.861 50.47-4.451 17.937-14.885 35.624-21.565 41.606-6.681 5.977-9.745 8.93-9.745 8.93 45.212-7.658 55.175-50.977 55.175-74.056 0-18.353-3.392-36.775-2.414-58.517.246-5.595.792-11.42 1.759-17.516 4.671-29.521 24.209-55.711 24.516-56.116-.176.1-6.015 3.5-23.478 10.661-.285.115-.563.229-.847.345-7.013 2.783-14.022 4.398-19.9 5.343-8.756 1.414-15 1.316-15 1.316s-.764 3.663-5.473 26.857c-2.288 11.266-4.364 26.156-7.407 42.457l-45.687-65.651-1.683-2.549a12.9 12.9 0 0 0 4.545-4.607q.452-.78.781-1.6h52.991c-.808.731-1.245 1.103-1.245 1.103 8.423-1.081 16.578-3.15 24.406-5.879 0 0 .005 0 .005-.005 23.215-8.09 43.563-21.966 59.448-32.845 21.238-14.553 37.002-17.582 37.002-17.582V89.142l1.765-.055h.011v34.717c-5.163.098-20.332 1.665-36.915 15.491-20.474 17.063-25.947 40.694-28.465 47.371-1.825 4.824-6.217 16.97-9.008 26.506-.951 3.248-1.715 6.19-2.125 8.445-.054.283-.098.557-.141.818-.41 2.631-.432 5.476-.181 8.303v.005c.54 6.262 2.387 12.451 4.228 16.147 2.683 5.36 13.028 22.533 18.555 31.18 1.274 1.987 2.387 3.716 3.354 5.246 2.284 3.623 3.704 6.151 4.332 8.482.257.966.377 1.889.361 2.849 0 0 3.911-3.81 8.018-6.387a24 24 0 0 1 2.327-1.299c4.818-2.297 5.48-3.088 5.255-3.553-.218-.47-3.582-2.789-2.572-7.085s7.281-15.972 16.638-13.953c0 0 .842-29.939-.109-33.363a3 3 0 0 0-.147-.425c1.862-.649 5.288-1.343 7.271-1.152.01 11.91.049 24.754.049 34.886 0 11.757-1.695 11.982-1.695 11.982s-3.232-1.152-6.019-3.155c-2.791-2.009-5.708-1.081-7.975 1.932-2.261 3.007-2.355 3.996-1.513 5.142.836 1.147 3.299 3.313 5.741 3.696 2.447.387 7.161-1.054 7.658-1.054.492 0 .574 1.883 1.803 3.827 1.234 1.943 7.057 7.194 11.275 7.685v4.673c-.12.005-.242.01-.356.005-4.818-.109-9.963-4.427-13.082-7.33-3.124-2.9-7.5-4.264-10.674-3.446 0 0-13.246 4.427-23.968 14.002-10.73 9.569-14.071 15.918-14.071 15.918s10.782-27.784 8.925-28.385c-1.858-.6-16.858 8.749-22.113 22.702-5.253 13.947-4.107 42.828 0 58.909 4.109 16.081 13.193 29.324 18.938 40.535 3.824 7.463 9.139 17.065 12.264 22.644l-45.054-21.873c-3.747-26.53-3.446-62.987-3.446-62.987s-9.582 6.572-19.196 11.075v.006a85 85 0 0 1-3.572 1.571c-4.463 1.818-9.226 2.976-13.247 3.712-5.582 1.016-9.744 1.218-9.744 1.218s3.632 11.518 8.221 25.508l-45.218-21.949a12.98 12.98 0 0 0 .961-8.505c23.15-.59 48.211-15.229 57.716-38.919 10.176-25.382 12.841-51.82 14.229-67.939"/><path fill="#ddd3c0" d="M230.532 273.081c2.262-3.014 5.179-3.941 7.976-1.933 2.786 2.003 6.019 3.155 6.019 3.155s1.694-.217 1.694-11.982c0-10.13-.038-22.969-.049-34.885-.005-1.922-.005-3.816-.005-5.672 0-13.373-3.906-17.517-8.359-18.609-4.452-1.096-18.938-1.457-32.659-.512-2.594.175-5.152.732-7.582 1.506-.984-2.248-2.999-8.106-1.601-15.895 1.809-10.06 8.593-24.559 18.289-35.607 9.335-10.644 28.267-18.346 41.241-18.652v63.457c-.678 7.118-2.07 11.927-3.24 22.439-1.605 14.526-.671 45.865-.671 56.04 0 8.225 2.83 14.307 3.911 16.337v.098c-4.217-.492-10.04-5.743-11.274-7.686-1.235-1.943-1.311-3.826-1.803-3.826-.497 0-5.211 1.44-7.659 1.054-2.447-.383-4.905-2.555-5.741-3.696-.841-1.141-.753-2.129 1.513-5.131"/><path fill="url(#o)" d="M244.791 477.461c-20.648 1.223-39.051-2.778-54.456-9.994 16.896 5.447 34.375 8.723 52.243 9.777q1.01.065 2.026.114s.062.038.187.103"/><path fill="url(#p)" d="m152.356 407.674 14.557 7.063c.666 4.089 1.453 7.86 2.365 11.113 6.692 23.889 40.133 42.758 61.828 39.183 4.044 5.12 8.403 9.525 12.619 11.686 0 0-31.676-2.15-51.231-14.258-19.562-12.102-34.305-29.901-39.123-50.317a249 249 0 0 1-1.015-4.47"/><path fill="url(#q)" d="M196.089 214.908c-1.738.66-2.551.551-2.748-.229-.245-.982.771-1.452 6.02-4.324 5.254-2.87 7.773-3.771 12.045-3.553 4.265.218 10.783 3.319 15.524 9.52 2.13 2.784 4.604 4.934 6.763 6.774l-1.006.022c-.207-.196-.917-.36-2.709-.398-.176-.132-.345-.246-.508-.361-1.863-1.261-5.391-1.288-8.402.737s-10.264 6.234-15.272 3.826c-3.534-1.698-6.795-4.879-8.658-6.981-.777-.879-1.312-1.572-1.524-1.878-.579-.873-.323-1.851.589-1.856.209 0 .448.05.722.159 1.48.606 6.32 6.92 13.055 6.512 6.729-.41 11.684-6.534 11.684-6.758 0-.218-5.55-4.372-10.149-5.224-4.605-.851-11.007 1.943-13.853 3.313-.59.29-1.114.519-1.573.699"/><path fill="url(#r)" d="M233.697 223.091c2.447 2.08 4.495 3.761 5.206 5.492.06.136.109.283.147.426.951 3.427.109 33.362.109 33.362-9.357-2.025-15.628 9.656-16.638 13.952-1.01 4.297 2.354 6.616 2.572 7.086.22.464-.437 1.255-5.255 3.554-.764.365-1.551.807-2.326 1.299.175-2.359.628-7.67 1.392-11.578 1.011-5.169 1.7-9.712 5.807-15.672 4.103-5.966 7.713-9.356 9.138-14.663 1.421-5.305.69-19.278.601-19.633-.076-.323-2.616-2.631-4.473-3.99 1.797.032 2.507.201 2.71.397z"/><path fill="#c8c090" d="M234.45 226.71c.087.361.819 14.334-.601 19.634-1.42 5.307-5.036 8.696-9.139 14.662-4.107 5.966-4.796 10.503-5.806 15.673-.766 3.908-1.218 9.219-1.393 11.577-4.113 2.577-8.018 6.386-8.018 6.386a10.3 10.3 0 0 0-.361-2.849c.792-1.087 1.835-3.025 1.458-5.322-.589-3.576-2.633-14.444-12.335-32.746-9.706-18.309-14.96-29.979-14.96-29.979s13.431 5.142 19.599 7.767c6.167 2.631 10.619 1.277 15.366-2.406 4.741-3.685 7.178-6.49 11.727-6.398 1.847 1.365 4.386 3.673 4.463 4.001"/><path fill="#252842" d="M265.957 433.875c4.671-3.723 35.543-33.183 37.5-42.446 1.9-9.017.098-18.111.006-18.581v-.006a66 66 0 0 0-5.19-7.517c-.912-1.135-1.814-2.275-2.726-3.427a574 574 0 0 0-2.076-2.604c-4.867-6.065-10.252-12.401-18.244-19.568-6.67-5.984-8.548-9.68-9.018-11.612l-.006-.006s-4.496 3.707-10.706 4.21c-6.205-.503-10.707-4.21-10.707-4.21l-.006.006c-.47 1.932-2.347 5.623-9.017 11.612-7.993 7.167-13.378 13.503-18.245 19.568q-1.05 1.31-2.076 2.604c-.912 1.146-1.813 2.292-2.726 3.427a66 66 0 0 0-5.188 7.517v.006c-.094.475-1.896 9.564.005 18.581 1.95 9.263 32.828 38.723 37.499 42.446s3.578 6.42 0 7.146c-3.02.616-19.228 1.91-24.177 2.291 4.102 6.835 7.741 11.923 11.187 17.507.017.033.044.066.06.098h.006c1.748-.551 7.424-2.38 14.711-5.185 4.265-1.644 6.652-2.294 8.674-2.315 2.021.016 4.414.671 8.673 2.315 7.287 2.805 12.963 4.639 14.711 5.185h.006a1 1 0 0 0 .06-.098c3.446-5.584 7.085-10.672 11.187-17.507-4.949-.381-21.157-1.68-24.177-2.291-3.577-.732-4.671-3.423 0-7.146m-10.46-5.033c-3.185-5.158-17.475-28.395-20.643-35.225-.852-1.834-1.765-3.64-2.621-5.436-1.749-3.657-3.294-7.315-3.78-11.223v-.006a19.6 19.6 0 0 1 .348-6.964c2.044-8.827 7.37-15.317 8.718-16.268.76-.535 1.475-1.228 2.371-2.221.7-.774 1.518-1.736 2.557-2.953a48 48 0 0 1 1.862-2.063c1.251-1.305 2.142-2.091 3.212-3.259 1.295-1.419 3.655-3.482 7.976-3.919 4.325.437 6.685 2.5 7.975 3.919 1.07 1.168 1.961 1.949 3.212 3.259a51 51 0 0 1 1.862 2.063c1.039 1.217 1.852 2.179 2.557 2.953.896.999 1.611 1.686 2.371 2.221 1.343.951 6.674 7.441 8.718 16.268.562 2.439.628 4.743.349 6.964v.006c-.487 3.908-2.032 7.56-3.779 11.223-.858 1.802-1.765 3.602-2.623 5.436-3.168 6.83-17.458 30.067-20.642 35.225"/><path fill="#24254b" d="M231.101 465.032c-21.696 3.575-55.136-15.295-61.828-39.182-.912-3.253-1.694-7.025-2.365-11.113l47.276 22.947c1.377 2.763 8.446 16.616 16.917 27.348"/><path fill="url(#s)" d="M190.336 467.467c-.006.006-.006.006-.011-.005-18.249-8.542-32.304-21.617-40.913-35.885a47 47 0 0 1-1.005-1.715c-5.217-9.17-9.434-19.989-12.716-30.284l16.67 8.096c.34 1.549.677 3.051 1.011 4.47 4.818 20.421 19.56 38.216 39.122 50.318 19.555 12.107 51.232 14.257 51.232 14.257l.884.634a123 123 0 0 1-2.026-.115c-17.873-1.048-35.353-4.323-52.248-9.771"/><path fill="#ecedf6" d="m225.251 47.694-5.517 8.095h-.005q-2.312.378-4.605.83l7.362-10.808z"/><path fill="#fffffb" d="m219.729 55.79-21.905 32.151a85.5 85.5 0 0 0-9.341 7.779l26.64-39.1c1.535-.3 3.064-.579 4.606-.83"/><path fill="#071c50" d="M211.519 210.903c4.599.851 10.149 5.004 10.149 5.223 0 .218-4.948 6.344-11.684 6.757-6.735.41-11.58-5.905-13.055-6.511a2 2 0 0 0-.722-.158l-.119-1.305c.459-.176.983-.404 1.578-.693 2.851-1.37 9.253-4.16 13.853-3.313"/><path fill="#f7b41e" d="M305.795 377.094c-.016-.246-.437-8.935-1.005-19.291-.589-10.502-1.901-18.887-8.177-28.445a40 40 0 0 0-1.087-1.582c-1.197 1.446-4.464 4.356-11.351 4.574-9.056.283-17.698-4.11-17.961-4.242.47 1.932 2.349 5.623 9.019 11.611 7.991 7.168 13.377 13.504 18.244 19.569q1.05 1.31 2.077 2.604c.912 1.152 1.812 2.292 2.724 3.428a66 66 0 0 1 5.19 7.517v.005a76 76 0 0 1 2.327 4.252"/><path fill="url(#t)" d="M226.825 332.35c-6.889-.218-10.154-3.128-11.351-4.574a39 39 0 0 0-1.087 1.582c-6.276 9.558-7.593 17.943-8.177 28.445a2901 2901 0 0 0-1.005 19.291 68 68 0 0 1 2.332-4.252v-.005a66 66 0 0 1 5.189-7.517c.912-1.136 1.814-2.281 2.726-3.428.682-.863 1.377-1.731 2.075-2.604 4.867-6.065 10.254-12.401 18.245-19.569 6.67-5.983 8.549-9.679 9.019-11.611-.268.138-8.91 4.531-17.966 4.242"/><path fill="#fdfdfd" d="m215.697 434.705-1.458 3.006-.049-.022c-.164-.321-.246-.49-.246-.49s-1.015-1.796-2.588-4.602z"/><path fill="#272742" d="m215.124 56.62-26.64 39.1a94 94 0 0 0-5.069 5.213L79.967 150.574a12.4 12.4 0 0 0-1.95-2.332c7.86-11.894 16.94-23.002 27.17-33.226a209 209 0 0 1 6.145-5.895c18.097-16.725 38.729-30.034 61.426-39.635a210.6 210.6 0 0 1 42.366-12.866"/><path fill="#fdfdfd" d="M211.356 432.598c1.572 2.805 2.588 4.601 2.588 4.601s.083.169.247.492l-47.278-22.948a179 179 0 0 1-.611-4.012zM231.386 286.279s8.652 5.027 9.527 5.688c.878.66 1.752 1.753-1.312 3.335-3.064 1.589-29.339 19.416-36.62 31.344a93 93 0 0 0-4.572 8.438c-4.752 10.018-7.686 21.18-6.757 32.146 1.201 14.165 5.747 30.41 8.428 37.359 1.333 3.455 2.939 6.299 5.103 10.055q.006.008.005.017c2.19 3.798 4.949 8.526 8.582 15.747a247 247 0 0 0 2.157 4.177l-.223.119-4.338-2.108c-3.125-5.583-8.44-15.179-12.264-22.642-5.746-11.211-14.835-24.449-18.938-40.535-4.107-16.076-5.255-44.963 0-58.909 5.255-13.953 20.255-23.302 22.113-22.702 1.857.599-8.927 28.385-8.927 28.385s3.343-6.343 14.071-15.918c10.719-9.569 23.965-13.996 23.965-13.996"/><path fill="#05b5cc" d="M218.254 229.118c4.742-3.685 7.178-6.492 11.728-6.398-.174-.132-.345-.246-.508-.361-1.863-1.261-5.391-1.288-8.401.737s-10.263 6.234-15.273 3.827c-3.534-1.697-6.796-4.88-8.658-6.982l-18.157 1.676c-.054.283-.098.557-.142.819-.409 2.63-.431 5.475-.181 8.302v.006c.541 6.261 2.388 12.45 4.229 16.146 2.681 5.361 13.028 22.533 18.555 31.18 1.273 1.987 2.387 3.717 3.354 5.246 2.284 3.624 3.704 6.151 4.332 8.482.792-1.086 1.835-3.024 1.458-5.321-.589-3.576-2.632-14.445-12.333-32.747-9.707-18.309-14.962-29.979-14.962-29.979s13.431 5.142 19.599 7.768c6.162 2.63 10.613 1.282 15.36-2.401"/><path fill="url(#u)" d="M308.012 326.646c-7.281-11.928-33.555-29.755-36.62-31.344-3.064-1.582-2.19-2.674-1.31-3.335.873-.66 9.525-5.688 9.525-5.688-3.172-.818-7.553.546-10.673 3.445s-8.265 7.216-13.083 7.331c-.114.005-.234 0-.354-.006-.121.006-.241.011-.355.006-4.818-.109-9.964-4.427-13.083-7.331-3.125-2.899-7.5-4.263-10.673-3.445 0 0 8.653 5.028 9.526 5.688.879.661 1.753 1.753-1.311 3.335-3.065 1.589-29.339 19.416-36.62 31.344a93 93 0 0 0-4.572 8.439l.115.054c4.277-8.985 14.448-15.775 19.041-18.946 5.546-3.832 14.957-10.542 23.319-10.542 8.359 0 14.619 4.596 14.619 4.596s6.264-4.596 14.617-4.596c8.357 0 17.774 6.71 23.319 10.542 4.593 3.171 14.759 9.961 19.041 18.946l.115-.054a95 95 0 0 0-4.583-8.439"/><path fill="url(#v)" d="M196.722 341.03c-1.605 11.883 1.765 61.977 7.532 71.098.268.813.575 1.649.929 2.517-2.168-3.762-3.768-6.605-5.101-10.056-2.678-6.947-7.222-23.193-8.43-37.358-.927-10.967 2.006-22.134 6.757-32.146l.116.056c-.891 1.876-1.529 3.843-1.803 5.889"/><path fill="#fefefe" d="m197.824 87.941-9.904 14.525-9.782 4.694a119 119 0 0 1 5.271-6.228l2.255-1.08 2.819-4.133a85.5 85.5 0 0 1 9.341-7.778"/><path fill="#8e485f" d="M171.78 160.578c17.458-7.161 23.297-10.556 23.477-10.661-.305.404-19.844 26.595-24.514 56.116a156 156 0 0 0-1.76 17.516c-4.151 1.31-9.09 1.965-13.863 2.248.028-3.892.006-5.895.006-5.895s.873-20.72 5.839-36.622c3.501-11.217 7.768-18.843 9.974-22.357q.417-.173.841-.345"/><path fill="#fefefe" d="m188.483 95.72-2.818 4.132-2.255 1.08a97 97 0 0 1 5.073-5.212"/><path fill="#272742" d="m81.41 153.586 96.734-46.419c-4.637 5.851-8.68 11.927-12.553 17.805-10.859 16.508-21.871 28.238-27.95 34.182H81.968c.229-1.889.027-3.788-.558-5.568"/><path fill="#dd5a79" d="M151.035 166.267c5.877-.945 12.885-2.56 19.899-5.345-2.207 3.516-6.474 11.142-9.975 22.359-4.965 15.901-5.839 36.622-5.839 36.622s-.093 2.266-.283 5.911c-6.638.383-12.908.055-16.252-.201 3.075-30.339 10.565-53.79 12.45-59.346"/><path fill="#2b66ab" d="M168.985 223.549c-.978 21.742 2.414 40.166 2.414 58.517 0 23.084-9.964 66.403-55.176 74.057 0 0 3.064-2.953 9.744-8.931 6.681-5.982 17.114-23.667 21.566-41.605 4.451-17.942 5.982-27.571 6.86-50.471.52-13.662.684-23.558.727-29.317 4.769-.285 9.707-.934 13.865-2.25"/><path fill="#fdfdfd" d="m166.912 414.736-14.556-7.063c-.289-1.343-.59-2.723-.88-4.142l14.825 7.194c.191 1.364.399 2.707.611 4.011"/><path fill="#2b21eb" d="m166.3 410.725-14.824-7.194c-3.447-16.725-6.746-37.703-7.822-44.707v-.005c9.614-4.503 19.194-11.075 19.194-11.075s-.294 36.458 3.452 62.981"/><path fill="#fdfdfd" d="m152.355 407.673-16.671-8.095a179 179 0 0 1-1.355-4.373l17.146 8.324q.445 2.13.88 4.144"/><path fill="#fefcfd" d="M136.034 167.582s6.243.093 14.999-1.316c-1.884 5.558-9.378 29.007-12.449 59.346l-.033.334c-3.506 35.005-9.744 56.671-14.343 71.763-4.31 14.16-22.5 48.349-50.855 53.61a13 13 0 0 0-3.229-.857v-5.246c8.735-7.936 28.672-28.067 38.756-54.509 5.217-13.685 8.964-28.03 11.881-41.796l3.004 4.656 6.571-6.344-7.183-10.322c3.043-16.299 5.119-31.19 7.407-42.457 4.709-23.199 5.474-26.862 5.474-26.862"/><path fill="#ffe3b4" d="M148.405 429.863c.323.574.662 1.146 1.007 1.714-2.432 1.763-7.561 5.432-7.884 5.285l-1.141-2.916c-3.441-8.439-8.865-24.329-13.618-38.685l8.915 4.324c3.283 10.289 7.5 21.107 12.721 30.278"/><path fill="url(#w)" d="M138.59 225.612c3.343.252 9.614.585 16.251.203-.328 6.496-.951 17.381-1.836 27.703-1.382 16.119-4.047 42.555-14.229 67.937-9.505 23.69-34.566 38.331-57.716 38.92a12.9 12.9 0 0 0-1.404-3.559 12.97 12.97 0 0 0-6.298-5.491c28.355-5.263 46.545-39.45 50.855-53.61 4.599-15.092 10.837-36.758 14.344-71.763.005-.115.022-.229.033-.34"/><path fill="#3858d6" d="M143.659 358.824c1.076 7.004 4.376 27.982 7.822 44.707l-17.146-8.324c-4.103-13.697-6.533-25.87-7.489-31.105 4.025-.736 8.783-1.894 13.246-3.71a83 83 0 0 0 3.567-1.568"/><path fill="#15134a" d="M126.77 395.256c4.753 14.361 10.176 30.246 13.619 38.685 0 0 .452 1.163 1.141 2.914 0 0-26.018-10.966-40.335-25.545a154.282 154.282 0 0 1-1.376-1.464c-.044-.044-.088-.093-.126-.131a211.3 211.3 0 0 1-26.138-34.569 12.78 12.78 0 0 0 4.709-3.445z"/><path fill="#fefefe" d="M138.814 159.148v3.341h-4.713c.819-.742 2.027-1.862 3.539-3.341z"/><path fill="#ff7f16" d="M81.967 159.148h55.674a124 124 0 0 1-3.54 3.341H81.11c.448-1.087.731-2.212.857-3.341"/><path fill="#fdfdfd" d="m135.683 399.572-8.914-4.323c-.492-1.495-.978-2.974-1.459-4.42l9.013 4.371q.655 2.17 1.36 4.372"/><path fill="#fefefe" d="M157.266 157.713c-7.827 2.729-15.983 4.798-24.406 5.879 0 0 .437-.372 1.245-1.103h4.715v-3.34h-1.175c6.08-5.939 17.087-17.671 27.951-34.182 3.873-5.879 7.915-11.949 12.553-17.806l9.783-4.695 9.904-14.525c13.219-9.487 30.753-16.136 55.891-16.633v14.024l-.793.027c-.829.055-1.654.153-2.479.224-.416.043-.831.076-1.24.13l-1.235.192c-.819.136-1.649.23-2.458.404l-2.43.53c-.815.168-1.606.42-2.409.621l-1.197.323c-.398.114-.786.25-1.185.376-.782.251-1.573.508-2.349.78-3.097 1.13-6.112 2.463-9.045 3.92-2.929 1.485-5.747 3.15-8.489 4.93-5.468 3.575-10.565 7.647-15.296 12.074-4.702 4.465-9.148 9.197-12.966 14.405a150 150 0 0 1 14.191-12.997 123 123 0 0 1 7.642-5.775c2.616-1.813 5.26-3.581 8.002-5.191 1.376-.786 2.742-1.594 4.152-2.31 1.387-.753 2.813-1.446 4.228-2.14 2.861-1.326 5.778-2.516 8.762-3.509 2.987-.95 6.008-1.801 9.077-2.342.765-.158 1.542-.245 2.311-.366l1.153-.169c.387-.054.775-.076 1.163-.114.777-.066 1.546-.148 2.322-.202l.563-.017v12.975c-3.802.131-21.053 1.256-35.468 10.929-16.316 10.939-23.264 17.887-33.829 26.147-10.564 8.27-18.85 14.181-27.159 18.526"/><path fill="#fefcfd" d="m123.159 236.896 7.182 10.322-6.571 6.341-3.004-4.655a486 486 0 0 0 2.393-12.008"/><path fill="#ffe3b4" d="M126.841 364.104c.961 5.234 3.392 17.402 7.489 31.102l-9.013-4.372c-4.588-13.996-8.221-25.509-8.221-25.509s4.162-.207 9.745-1.221"/><path fill="#fdfdfd" d="m126.77 395.256-48.512-23.555a13 13 0 0 0 1.841-2.821l45.218 21.949c.475 1.451.961 2.932 1.453 4.427"/><path fill="#e03528" d="M93.11 109.655c4.965-.698 11.514-1.195 18.222-.535a208 208 0 0 0-6.145 5.896c-10.231 10.224-19.31 21.332-27.17 33.226a13 13 0 0 0-2.42-1.801 12.9 12.9 0 0 0-8.964-1.485c1.907-3.242 4.49-7.047 7.325-10.966 6.965-9.618 15.454-19.913 19.152-24.335"/><path fill="#069ebf" d="M101.194 411.315c14.318 14.574 40.335 25.545 40.335 25.545 1.059 2.713 2.671 6.835 3.999 10.203-14.607-8.827-28.105-19.411-40.34-31.644a253 253 0 0 1-3.994-4.104"/><path fill="#ff5b32" d="M88.653 110.387a86 86 0 0 1 4.457-.737c-3.698 4.422-12.186 14.716-19.15 24.334l-3.333-1.484a228 228 0 0 1 18.026-22.113"/><path fill="#fefcfd" d="M75.602 146.435c.89.514 1.699 1.12 2.42 1.802.748.698 1.398 1.49 1.95 2.331a12.94 12.94 0 0 1 2 8.575 12.75 12.75 0 0 1-1.634 4.939 12.86 12.86 0 0 1-4.545 4.609l-1.606-2.43-4.156 3.936.19.288a.4.4 0 0 1-.087.011c-.327.029-.666.045-1.005.045a12.9 12.9 0 0 1-3.698-.54 12.6 12.6 0 0 1-2.753-1.191 12.84 12.84 0 0 1-6.025-7.843 12.76 12.76 0 0 1-.142-6.12s0-.006.006-.011a13 13 0 0 1 1.425-3.663c0-.006.006-.006.006-.011a12.7 12.7 0 0 1 2.43-3.029 13.04 13.04 0 0 1 6.271-3.188 13 13 0 0 1 2.508-.246c2.245.005 4.479.601 6.445 1.736M65.06 164.683c.295.17.595.323.901.442.131.055.257.109.388.153.142.054.284.105.437.148h.005c.006.006.006.006.011 0 .131.049.273.082.41.115q.23.065.47.098c.12.022.24.043.36.054.082.017.164.022.246.028.055.01.12.016.18.016.093.011.192.016.284.016.131.011.268.011.4.011a8 8 0 0 0 .982-.06q.19-.022.377-.054c.011 0 .017 0 .033-.006q.138-.023.284-.054c.077-.017.159-.027.24-.055q.057-.009.12-.027c.039-.011.077-.016.12-.027q.622-.174 1.219-.443c.104-.049.207-.092.311-.152.246-.12.492-.258.727-.416q.156-.09.306-.207c.016-.01.038-.021.054-.038.093-.06.175-.125.257-.197a1 1 0 0 0 .137-.109 6.3 6.3 0 0 0 .96-.927c.083-.088.154-.169.22-.263.07-.082.13-.164.19-.245.186-.245.361-.514.52-.786.07-.131.141-.257.207-.388.038-.06.066-.125.093-.191q.18-.367.311-.742l.088-.252q.063-.172.103-.354c.017-.065.039-.131.055-.203.022-.076.044-.152.055-.234q.023-.091.038-.191c.033-.131.055-.273.071-.41.016-.12.027-.234.038-.354.017-.126.022-.246.028-.366.01-.131.01-.262.01-.399 0-.169-.005-.343-.016-.512a3.4 3.4 0 0 0-.044-.47c-.01-.087-.016-.169-.038-.256a3 3 0 0 0-.049-.306 4 4 0 0 0-.093-.399q.001-.008-.005-.017c-.017-.081-.044-.168-.066-.245a3 3 0 0 0-.087-.283 5 5 0 0 0-.208-.568 6.4 6.4 0 0 0-.48-.988 3 3 0 0 0-.208-.338 5 5 0 0 0-.399-.568 6 6 0 0 0-.246-.301c-.054-.06-.103-.125-.158-.18q-.123-.137-.246-.267a6 6 0 0 0-.377-.361c-.016-.016-.033-.027-.054-.049a5 5 0 0 0-.317-.256 6 6 0 0 0-.58-.426c-.13-.092-.278-.174-.42-.256a8.15 8.15 0 0 0-8.549.24 8.1 8.1 0 0 0-2.594 2.745c-2.25 3.898-.912 8.876 2.988 11.13"/><path fill="#fdfdfd" d="M73.358 351.325a12.96 12.96 0 0 1 6.298 5.491 12.9 12.9 0 0 1 1.404 3.559c.661 2.887.295 5.89-.961 8.504a13 13 0 0 1-1.84 2.822 12.8 12.8 0 0 1-3.338 2.762q-.666.387-1.371.683a12.8 12.8 0 0 1-5.091 1.047c-2.213 0-4.338-.567-6.217-1.593 0-.005-.005-.005-.005-.005a13.2 13.2 0 0 1-3.403-2.692 12.6 12.6 0 0 1-1.579-2.172 12 12 0 0 1-.814-1.681 12.7 12.7 0 0 1-.912-4.514v-.006c-.027-1.201.12-2.413.437-3.608a12.82 12.82 0 0 1 5.605-7.593c.136-.088.278-.169.42-.251a13 13 0 0 1 4.796-1.627q.215-.025.437-.049.606-.056 1.23-.055.844.001 1.682.109c1.109.153 2.196.448 3.222.869m-9.745 5.398c-.005 0-.005 0-.01.011a5 5 0 0 0-.377.294 5 5 0 0 0-.4.355 4 4 0 0 0-.403.416 3 3 0 0 0-.213.245q-.138.162-.268.332a8 8 0 0 0-.306.437l-.01.011q-.14.215-.263.437c-.093.147-.17.3-.246.459-.005.017-.016.027-.016.044q-.107.22-.197.446c-.065.165-.13.323-.18.492q-.075.211-.131.437c-.017.049-.022.093-.033.136a3 3 0 0 0-.098.437v.006a5 5 0 0 0-.088.517 8.2 8.2 0 0 0 .202 3.123c.05.17.099.344.153.513q.132.386.295.753a8.134 8.134 0 0 0 7.866 4.799l.235-.016q.244-.015.48-.055a5 5 0 0 0 .394-.065c.016 0 .027 0 .038-.011.164-.028.322-.067.481-.105.022-.005.05-.011.066-.016.13-.033.25-.071.376-.114q.073-.018.137-.044.231-.08.453-.169.245-.096.481-.219.015-.002.022-.011c.164-.076.322-.163.475-.251a21 21 0 0 0 .535-.332c.132-.094.252-.181.372-.274.005-.005.016-.01.016-.016.088-.065.17-.136.257-.207v-.022c.104-.081.208-.169.306-.273a1 1 0 0 0 .07-.06c.088-.077.17-.164.247-.245a8.4 8.4 0 0 0 .89-1.103c.038-.055.071-.104.099-.158q.12-.18.218-.361l.005-.006a6 6 0 0 0 .191-.359c.023-.044.05-.087.066-.131.011-.022.017-.044.027-.067.06-.13.12-.256.17-.392a6 6 0 0 0 .174-.475c.044-.12.082-.245.115-.365.033-.121.06-.236.093-.356a1 1 0 0 0 .033-.157c.016-.082.038-.164.049-.242l.05-.272c.016-.082.021-.163.032-.245q.084-.695.044-1.398a6 6 0 0 0-.022-.338q-.002-.04-.011-.087c-.005-.082-.016-.158-.027-.241a5 5 0 0 0-.077-.458 6 6 0 0 0-.104-.475 5 5 0 0 0-.13-.443c-.033-.103-.066-.207-.11-.31a.3.3 0 0 0-.033-.093 4 4 0 0 0-.13-.323c0-.005 0-.011-.012-.016v-.005a4 4 0 0 0-.17-.371 8 8 0 0 0-.25-.481 7.8 7.8 0 0 0-1.131-1.512 2 2 0 0 0-.115-.126c-.038-.043-.082-.081-.126-.125a6 6 0 0 0-.404-.366 5 5 0 0 0-.426-.338c-.142-.109-.29-.207-.437-.306a7 7 0 0 0-.464-.278s-.005 0-.005-.006c-.017-.005-.022-.016-.039-.016-.07-.044-.153-.082-.23-.12a3 3 0 0 0-.278-.131 5 5 0 0 0-.338-.148c-.164-.065-.323-.131-.492-.18-.01-.005-.016-.005-.022-.011a5 5 0 0 0-.382-.114c-.071-.016-.137-.038-.208-.055a3 3 0 0 0-.295-.065 3 3 0 0 0-.35-.06c-.038-.016-.076-.016-.114-.016a5.464 5.464 0 0 0-.688-.078c-.17-.016-.344-.016-.52-.016q-.23 0-.453.016l-.251.017-.207.017c-.093.011-.197.022-.29.044a.4.4 0 0 0-.142.022 2 2 0 0 0-.311.054q-.008-.002-.017.006a2 2 0 0 0-.311.07 2 2 0 0 0-.284.077c-.027 0-.055.011-.082.021-.088.017-.17.049-.246.077a6 6 0 0 0-.6.228 6 6 0 0 0-.383.176c-.17.076-.333.169-.503.262a6 6 0 0 0-.393.246q-.181.114-.355.245.009.007-.005.022"/><path fill="#fff3bf" d="m79.968 150.572 103.448-49.64a118 118 0 0 0-5.271 6.229l-96.735 46.42a13.1 13.1 0 0 0-1.442-3.009"/><path fill="#1e205d" d="M75.603 152.664c.142.18.279.37.399.568a7.706 7.706 0 0 1 .519.927c.06.131.12.263.169.399q.115.279.207.568.048.137.088.283c.022.082.049.169.065.247q.007.015.006.016c.033.131.065.267.093.397.016.104.038.209.049.307.016.087.027.169.038.256q.034.235.044.47c.016.168.016.343.016.513 0 .131 0 .261-.01.398q-.01.187-.028.366c-.01.12-.022.234-.038.354a3 3 0 0 1-.071.41c-.011.06-.022.131-.038.19-.011.082-.028.158-.055.236q-.024.096-.055.202a3 3 0 0 1-.104.354c-.021.088-.054.17-.087.252-.087.25-.191.502-.311.742a2 2 0 0 1-.093.19c-.06.132-.131.258-.208.388a7 7 0 0 1-.519.786c-.054.082-.12.163-.19.247a2.4 2.4 0 0 1-.22.261 7 7 0 0 1-.753.758c-.066.06-.131.12-.208.169-.043.044-.093.077-.136.111-.082.07-.17.13-.257.196a.2.2 0 0 1-.055.038 6 6 0 0 1-.305.207 6 6 0 0 1-.727.415c-.098.055-.207.104-.311.153a8.4 8.4 0 0 1-1.218.442c-.044.011-.082.017-.12.027-.044.017-.082.022-.12.028q-.125.03-.24.054a3 3 0 0 1-.285.055c-.016.005-.022.005-.033.005-.125.022-.251.044-.377.055q-.237.025-.475.043c-.17.016-.333.016-.508.016-.13 0-.267 0-.399-.01l-.284-.017c-.06 0-.125-.011-.18-.016a4 4 0 0 1-.246-.027q-.187-.024-.36-.055a3.4 3.4 0 0 1-.47-.098 6 6 0 0 1-.41-.114c-.005.005-.005.005-.01 0h-.006a6 6 0 0 1-.437-.149 4 4 0 0 1-.388-.152 8 8 0 0 1-.901-.441c-3.9-2.255-5.238-7.234-2.982-11.131a8.1 8.1 0 0 1 2.594-2.745 8.14 8.14 0 0 1 8.548-.24q.216.124.421.256c.202.131.399.273.58.426q.161.124.316.256c.016.017.038.033.055.049.13.115.25.236.376.361q.132.13.246.267c.055.055.104.12.159.18.087.099.163.203.24.301"/><path fill="#1e205d" d="M77.106 159.338c.016-.06.027-.13.038-.19-.011.066-.022.124-.038.19M76.401 161.314q.051-.09.093-.189a1 1 0 0 1-.093.189M76.002 153.232a6.271 6.271 0 0 0 0 0"/><path fill="#fefcfd" d="m74.183 166.266 1.606 2.43a12.9 12.9 0 0 1-5.571 1.801l-.191-.29z"/><path fill="#22245c" d="M73.718 369.495c.103-.087.206-.174.304-.272q-.148.148-.304.272M73.717 369.497c-.086.074-.168.145-.255.211.087-.071.169-.142.255-.211"/><path fill="#1e205d" d="M72.517 165.038q.156-.072.31-.152-.154.089-.31.152"/><path fill="#22245c" d="M71.868 355.872c.092.038.184.086.277.129z"/><path fill="#06c6fc" d="m66.502 130.666 4.124 1.834a223 223 0 0 0-10.258 15.633 12.7 12.7 0 0 0-2.43 3.03c0 .006-.006.006-.006.011a12.7 12.7 0 0 0-1.426 3.662q-.006.01-.005.011c-17.824 32.217-28.039 69.188-28.208 108.49a10.1 10.1 0 0 0-4.277-2.26c.41-30.076 6.522-59.253 18.173-86.787a230.6 230.6 0 0 1 24.313-43.624"/><path fill="#ff5359" d="M70.218 170.491a12.9 12.9 0 0 0 5.571-1.801l1.683 2.55 45.687 65.65a515 515 0 0 1-2.387 12.014z"/><path fill="#15134a" d="M108.885 290.707c-10.084 26.442-30.027 46.567-38.756 54.509V170.503q.04-.001.087-.011l50.555 78.413c-2.917 13.772-6.664 28.117-11.886 41.802"/><path fill="#fefcfd" d="M70.13 345.216v5.245a13.4 13.4 0 0 0-2.911-.054l-.437-.475v-1.791a99 99 0 0 0 3.348-2.925"/><path fill="#22245c" d="M69.78 355.238c.114.016.233.032.347.059q-.17-.033-.347-.059"/><path fill="#f89120" d="M69.125 170.545c.333 0 .671-.016 1.005-.043v174.714a110 110 0 0 1-3.343 2.931V170.333c.77.142 1.556.212 2.337.212"/><path fill="#22245c" d="M68.47 371.422a8.13 8.13 0 0 1-7.445-4.809 9 9 0 0 1-.295-.753 8.166 8.166 0 0 1-.355-3.636c.022-.169.054-.348.087-.517v-.006q.041-.216.099-.437c.01-.043.016-.092.032-.136.039-.147.088-.29.131-.437a8 8 0 0 1 .377-.938c.006-.017.017-.028.017-.044q.114-.23.245-.459.124-.222.263-.437l.01-.011c.093-.147.203-.294.306-.437.088-.114.17-.223.268-.332q.099-.13.213-.245c.044-.055.093-.105.142-.16.088-.092.17-.174.262-.256.017-.016.028-.032.044-.043.115-.109.23-.207.355-.312.126-.109.246-.207.377-.294.006-.011.006-.011.011-.006v-.005q.014-.016.022-.016c.114-.093.235-.169.355-.245q.189-.133.393-.247c.17-.093.333-.185.503-.261q.186-.1.382-.176a6.4 6.4 0 0 1 .847-.305.16.16 0 0 1 .082-.022q.137-.042.284-.076c.098-.033.207-.055.31-.071q.01-.006.017-.005c.104-.017.208-.038.312-.055a.4.4 0 0 1 .142-.022c.093-.016.196-.032.29-.043.065-.011.13-.018.207-.018a2 2 0 0 1 .25-.016q.223-.017.454-.017.264 0 .52.017.21.006.43.039c.088.011.17.017.257.038q.058 0 .115.017.179.025.35.06a7.309 7.309 0 0 1 .503.119q.194.05.382.115c.01.005.016.005.022.011a8 8 0 0 1 .83.328l.278.131c.077.038.159.076.23.119.016.006.022.017.038.017 0 .005.005.005.005.005.159.087.317.175.465.278q.222.142.437.306c.147.104.284.218.426.338.136.116.278.241.404.366.044.044.087.082.126.126q.057.058.114.125a7.8 7.8 0 0 1 1.382 1.994c.066.125.126.245.17.37v.005a3.883 3.883 0 0 1 .142.339.2.2 0 0 1 .032.093c.044.098.077.207.11.31q.073.214.13.443c.039.153.077.31.104.475.033.153.055.305.077.458.016.083.022.159.027.241q.01.039.011.087c.017.109.017.223.022.338.027.469.016.934-.044 1.398-.01.082-.016.164-.032.245-.017.093-.028.18-.05.273q-.016.117-.049.241a1 1 0 0 1-.033.158 5 5 0 0 1-.092.355 4 4 0 0 1-.115.365c-.055.163-.11.323-.175.475q-.081.197-.17.392-.013.034-.026.067c-.017.044-.044.087-.066.131q-.084.188-.191.359l-.006.006a3 3 0 0 1-.218.361 5.113 5.113 0 0 1-.295.437 7.6 7.6 0 0 1-.694.823 4 4 0 0 1-.246.246c-.022.021-.049.049-.07.06a8 8 0 0 1-.307.273c-.087.071-.169.142-.256.213-.006.005-.017.011-.017.016-.12.093-.245.18-.371.274-.038.021-.082.054-.126.081-.13.088-.273.169-.41.251a6 6 0 0 1-.475.25q-.014.01-.021.011a6 6 0 0 1-.481.22 6 6 0 0 1-.59.212 4 4 0 0 1-.377.114.13.13 0 0 1-.065.017 8 8 0 0 1-.481.103c-.011.012-.022.012-.038.012q-.198.042-.394.066a8 8 0 0 1-.48.054 2 2 0 0 1-.235.017c-.159.016-.3.021-.437.021"/><path fill="#1e205d" d="M67.204 165.54c-.136-.033-.277-.066-.407-.113q.203.064.407.113"/><path fill="#22245c" d="M67.106 355.244q-.154.024-.31.055.156-.04.31-.055"/><path fill="#fefcfd" d="m66.787 349.932.435.474-.435.049z"/><path fill="#272742" d="M65.427 169.999a209 209 0 0 0-5.795 12.539c-11.078 26.18-16.694 53.991-16.694 82.676s5.621 56.502 16.694 82.677a181 181 0 0 0 1.944 4.448q.207-.13.42-.252a13 13 0 0 1 4.797-1.625V170.333a12 12 0 0 1-1.366-.334"/><path fill="#22245c" d="M66.474 355.375q-.136.034-.282.076c.092-.033.19-.06.282-.076M62.825 357.384c-.092.081-.173.168-.26.254a3 3 0 0 1 .26-.254"/><path fill="#069ebf" d="M62.248 374.6a12.94 12.94 0 0 0 6.216 1.594c1.754 0 3.485-.36 5.091-1.049a211.6 211.6 0 0 0 26.138 34.57c.038.043.082.092.125.131.426.469.863.928 1.311 1.391.022.023.05.051.066.072a221 221 0 0 0 3.998 4.105c12.236 12.227 25.734 22.816 40.341 31.643h.005c.546 1.381 1.043 2.642 1.437 3.625-7.004 6.414-32.546-9.05-47.83-26.507-3.54-4.04-7.144-8.462-10.591-12.86-.006-.006-.011-.016-.017-.016-11.498-14.674-21.287-29.205-21.287-29.205z"/><path fill="#069ebf" d="M88.539 411.292c-12.64-14.356-22.336-27.741-29.7-39.389a13.2 13.2 0 0 0 3.409 2.696l5.003 7.49s9.79 14.531 21.288 29.203"/><path fill="#ff5b32" d="M60.368 148.138a221 221 0 0 1 10.258-15.633l3.332 1.484c-2.835 3.92-5.418 7.719-7.324 10.967a12.9 12.9 0 0 0-6.266 3.182"/><path fill="#ece8e7" d="M28.299 263.343c.169-39.302 10.384-76.274 28.208-108.491a12.9 12.9 0 0 0 .142 6.12 12.84 12.84 0 0 0 6.025 7.844c.874.508 1.797.901 2.753 1.19a209 209 0 0 0-5.796 12.538c-11.078 26.18-16.693 53.991-16.693 82.677 0 28.684 5.62 56.502 16.693 82.675a176 176 0 0 0 1.945 4.449 12.77 12.77 0 0 0-5.605 7.593 12.5 12.5 0 0 0-.437 3.609c-4.812-8.374-12.072-21.628-18.08-35.312-.006-.011-.006-.011-.006-.016q-.006-.017-.005-.017a226 226 0 0 1-8.73-49.957"/><path fill="#03b9ff" d="M37.913 329.741c1.458 4.52 6.544 18.636 18.528 38.308q.346.861.814 1.682.683 1.18 1.579 2.172c7.369 11.648 17.064 25.033 29.699 39.389.005.005.01.016.016.016 3.447 4.406 7.052 8.822 10.592 12.861 15.284 17.456 40.825 32.92 47.829 26.508.245.61.448 1.118.595 1.479 1.344 3.302.858 5.016-2.162 7.784-.782.715-1.792 1.119-3.017 1.255-49.707-28.626-87.616-75.519-104.473-131.454"/><path fill="#0165fe" d="M28.08 301.269c1.803 8.259 5.293 17.691 9.357 26.928q-.001 0 .006.016c0 .006 0 .006.005.016.006.022.017.071.038.137.017.06.044.147.077.25.01.033.016.072.033.111.038.136.082.277.125.408l.06.203c.017.06.044.131.06.196.017.065.044.136.066.207 16.862 55.935 54.772 102.83 104.485 131.459-3.496.394-8.707-1.397-15.104-4.186 0-.005-.005-.005-.005-.005q-.008.001-.016-.006c-12.684-8.444-24.538-18.16-35.468-29.083-21.26-21.245-37.953-45.984-49.61-73.528-7.22-17.069-12.317-34.782-15.24-52.943z"/><path fill="#ece8e7" d="M56.442 368.056c-11.985-19.674-17.07-33.795-18.529-38.31-.022-.07-.05-.141-.066-.207-.016-.065-.043-.13-.06-.197q-.033-.105-.06-.202a9 9 0 0 1-.125-.408c-.017-.04-.022-.078-.033-.11-.033-.104-.055-.191-.077-.251-.016-.065-.032-.114-.038-.136 6.009 13.684 13.268 26.938 18.08 35.312v.005c.023 1.534.329 3.056.908 4.504"/><path fill="#0165fe" d="M37.438 328.195c-4.064-9.235-7.56-18.668-9.357-26.926l-1.131.174a229 229 0 0 1-2.382-20.704 10.24 10.24 0 0 0 4.146-2.5 225.5 225.5 0 0 0 8.724 49.956"/><path fill="#06c6fc" d="M28.326 268.167a223 223 0 0 1-.033-3.826q-.002-.497.006-1.004a10.1 10.1 0 0 0-4.277-2.26 249.677 249.677 0 0 0-.005 6.125q.083 6.796.551 13.537h.005a10.2 10.2 0 0 0 4.146-2.501c-.207-3.34-.338-6.691-.393-10.071"/><defs><linearGradient id="a" x1="267.269" x2="358.634" y1="442.197" y2="442.197" gradientUnits="userSpaceOnUse"><stop stop-color="#9d21a4"/><stop offset=".52" stop-color="#f51c90"/><stop offset="1" stop-color="#9801ca"/></linearGradient><linearGradient id="b" x1="297.516" x2="406.512" y1="160.434" y2="349.353" gradientUnits="userSpaceOnUse"><stop stop-color="#ff7300"/><stop offset=".681" stop-color="#ffb933"/><stop offset="1" stop-color="#ffdb4c"/></linearGradient><linearGradient id="d" x1="222.646" x2="288.027" y1="318.185" y2="252.759" gradientUnits="userSpaceOnUse"><stop stop-color="#f1d003"/><stop offset=".561" stop-color="#eb583f"/><stop offset=".923" stop-color="#e4d494"/></linearGradient><linearGradient id="e" x1="326.957" x2="282" y1="266.726" y2="221.737" gradientUnits="userSpaceOnUse"><stop stop-color="#fbb03b"/><stop offset=".168" stop-color="#f3bc58"/><stop offset=".441" stop-color="#e8cd82"/><stop offset=".581" stop-color="#e4d492"/><stop offset="1" stop-color="#e4d494"/></linearGradient><linearGradient id="f" x1="297.705" x2="297.705" y1="227.221" y2="201.96" gradientUnits="userSpaceOnUse"><stop stop-color="#c7b299"/><stop offset=".723" stop-color="#f89b23"/></linearGradient><linearGradient id="h" x1="266.386" x2="375.307" y1="438.466" y2="438.466" gradientUnits="userSpaceOnUse"><stop stop-color="#9800ce"/><stop offset=".479" stop-color="#ff288b"/><stop offset="1" stop-color="#f84690"/></linearGradient><linearGradient id="i" x1="266.2" x2="320.655" y1="472.573" y2="472.573" gradientUnits="userSpaceOnUse"><stop stop-color="#f84690"/><stop offset=".52" stop-color="#ff288b"/><stop offset="1" stop-color="#9800ce"/></linearGradient><linearGradient id="j" x1="255.496" x2="255.496" y1="123.81" y2="213.18" gradientUnits="userSpaceOnUse"><stop stop-color="#ff7300"/><stop offset=".958" stop-color="#f7aa46"/><stop offset="1" stop-color="#f7ad49"/></linearGradient><linearGradient id="k" x1="227.336" x2="287.439" y1="342.892" y2="342.892" gradientUnits="userSpaceOnUse"><stop stop-color="#ff7300"/><stop offset=".681" stop-color="#ffb933"/><stop offset="1" stop-color="#ffdb4c"/></linearGradient><linearGradient id="l" x1="227.336" x2="287.438" y1="390.169" y2="390.169" gradientUnits="userSpaceOnUse"><stop stop-color="#ff7300"/><stop offset=".681" stop-color="#ffb933"/><stop offset="1" stop-color="#ffdb4c"/></linearGradient><linearGradient id="o" x1="190.337" x2="244.792" y1="472.573" y2="472.573" gradientUnits="userSpaceOnUse"><stop stop-color="#f84690"/><stop offset=".52" stop-color="#ff288b"/><stop offset="1" stop-color="#9800ce"/></linearGradient><linearGradient id="p" x1="152.357" x2="243.722" y1="442.197" y2="442.197" gradientUnits="userSpaceOnUse"><stop stop-color="#9d21a4"/><stop offset=".52" stop-color="#f51c90"/><stop offset="1" stop-color="#9801ca"/></linearGradient><linearGradient id="q" x1="179.756" x2="247.389" y1="200.293" y2="237.31" gradientUnits="userSpaceOnUse"><stop stop-color="#f1d003"/><stop offset=".561" stop-color="#eb583f"/><stop offset=".923" stop-color="#848d73"/></linearGradient><linearGradient id="r" x1="286.969" x2="222.012" y1="98.678" y2="277.271" gradientUnits="userSpaceOnUse"><stop stop-color="#f1d003"/><stop offset=".609" stop-color="#e65b42"/><stop offset="1" stop-color="#818e93"/></linearGradient><linearGradient id="s" x1="135.685" x2="244.606" y1="438.466" y2="438.466" gradientUnits="userSpaceOnUse"><stop stop-color="#f84690"/><stop offset=".52" stop-color="#ff288b"/><stop offset="1" stop-color="#9800ce"/></linearGradient><linearGradient id="t" x1="205.199" x2="244.787" y1="352.436" y2="352.436" gradientUnits="userSpaceOnUse"><stop stop-color="#ff8f01"/><stop offset=".561" stop-color="#ff9800"/><stop offset="1" stop-color="#ffaf00"/></linearGradient><linearGradient id="u" x1="198.404" x2="312.587" y1="310.593" y2="310.593" gradientUnits="userSpaceOnUse"><stop stop-color="#ff7300"/><stop offset=".681" stop-color="#ffb933"/><stop offset="1" stop-color="#ffdb4c"/></linearGradient><linearGradient id="v" x1="187.27" x2="281.207" y1="374.867" y2="374.867" gradientUnits="userSpaceOnUse"><stop stop-color="#ff8f01"/><stop offset=".561" stop-color="#ff9800"/><stop offset="1" stop-color="#ffaf00"/></linearGradient><linearGradient id="w" x1="92.05" x2="144.013" y1="354.802" y2="264.735" gradientUnits="userSpaceOnUse"><stop stop-color="#009bb6"/><stop offset=".561" stop-color="#2d6db2"/><stop offset=".923" stop-color="#585ca4"/></linearGradient><radialGradient id="c" cx="0" cy="0" r="1" gradientTransform="matrix(68.5697 0 0 68.5219 276.929 208.823)" gradientUnits="userSpaceOnUse"><stop stop-color="#202646"/><stop offset=".349" stop-color="#0025c6"/><stop offset=".833" stop-color="#182948"/></radialGradient><radialGradient id="g" cx="0" cy="0" r="1" gradientTransform="matrix(68.5696 0 0 68.5219 276.929 208.823)" gradientUnits="userSpaceOnUse"><stop stop-color="#202646"/><stop offset=".349" stop-color="#0025c6"/><stop offset=".833" stop-color="#182948"/></radialGradient><radialGradient id="m" cx="0" cy="0" r="1" gradientTransform="matrix(53.5328 0 0 53.4955 235.985 214.074)" gradientUnits="userSpaceOnUse"><stop stop-color="#202646"/><stop offset=".349" stop-color="#0025c6"/><stop offset=".833" stop-color="#182948"/></radialGradient><radialGradient id="n" cx="0" cy="0" r="1" gradientTransform="matrix(53.5328 0 0 53.4954 235.985 214.074)" gradientUnits="userSpaceOnUse"><stop stop-color="#202646"/><stop offset=".349" stop-color="#0025c6"/><stop offset=".833" stop-color="#182948"/></radialGradient></defs></svg>