<svg xmlns="http://www.w3.org/2000/svg" viewBox="0 0 24 24" width="24" height="24" class="pointer-events-none size-4 select-none text-interactive-active" fill="currentColor"><rect x="1" y="5" width="1.1" height="5" rx="0.3"></rect><rect x="3" y="4.5" width="1.1" height="5.5" rx="0.3"></rect><rect x="5" y="4" width="1.1" height="5" rx="0.3"></rect><rect x="7" y="3.5" width="1.1" height="5.5" rx="0.3"></rect><rect x="9" y="3" width="1.1" height="4.5" rx="0.3"></rect><rect x="11" y="4" width="1.1" height="4" rx="0.3"></rect><rect x="13" y="3" width="1.1" height="4.5" rx="0.3"></rect><rect x="15" y="3.5" width="1.1" height="5.5" rx="0.3"></rect><rect x="17" y="4" width="1.1" height="5" rx="0.3"></rect><rect x="19" y="4.5" width="1.1" height="5.5" rx="0.3"></rect><rect x="21" y="5" width="1.1" height="5" rx="0.3"></rect><rect x="3" y="10.5" width="1.1" height="4.5" rx="0.3"></rect><rect x="5" y="10" width="1.1" height="5" rx="0.3"></rect><rect x="7" y="9.5" width="1.1" height="5" rx="0.3"></rect><rect x="9" y="9" width="1.1" height="4.5" rx="0.3"></rect><rect x="11" y="9.5" width="1.1" height="4" rx="0.3"></rect><rect x="13" y="9" width="1.1" height="4.5" rx="0.3"></rect><rect x="15" y="9.5" width="1.1" height="5" rx="0.3"></rect><rect x="17" y="10" width="1.1" height="5" rx="0.3"></rect><rect x="19" y="10.5" width="1.1" height="4.5" rx="0.3"></rect><rect x="5" y="16" width="1.1" height="3.5" rx="0.3"></rect><rect x="7" y="15.5" width="1.1" height="4" rx="0.3"></rect><rect x="9" y="15" width="1.1" height="4" rx="0.3"></rect><rect x="11" y="14.5" width="1.1" height="4.5" rx="0.3"></rect><rect x="13" y="15" width="1.1" height="4" rx="0.3"></rect><rect x="15" y="15.5" width="1.1" height="4" rx="0.3"></rect><rect x="17" y="16" width="1.1" height="3.5" rx="0.3"></rect></svg>