<svg xmlns="http://www.w3.org/2000/svg" viewBox="0 0 24 24" width="24" height="24" class="pointer-events-none size-4 select-none text-interactive-active" fill="none"><path d="M2.5 5C2.5 3.5 3.5 2.5 5 2.5C6.5 2.5 7.5 3.5 7.5 5L7.5 8C7.5 8 7.5 14 7.5 15.5C7.5 17 8.5 18 10 18C11.5 18 12.5 17 12.5 15.5L12.5 8.5" stroke="currentColor" stroke-width="3.5" stroke-linecap="round" stroke-linejoin="round"></path><path d="M12.5 8.5C12.5 8.5 12.5 15 12.5 17C12.5 19 14 21.5 16.5 21.5C19 21.5 20.5 19.5 20.5 17L20.5 15C20.5 13.5 21.5 12.5 21.5 11" stroke="currentColor" stroke-width="3.5" stroke-linecap="round" stroke-linejoin="round"></path></svg>